<?xml version="1.0" encoding="utf-8"?>
<svg xmlns="http://www.w3.org/2000/svg" xmlns:xlink="http://www.w3.org/1999/xlink" width="341.3" height="211.197" viewBox="0 0 341.3 211.197"><defs><linearGradient id="a" x1="0.501" y1="0.026" x2="0.501" y2="0.425" gradientUnits="objectBoundingBox"><stop offset="0" stop-color="#0064b7"/><stop offset="1" stop-color="#0064b7" stop-opacity="0"/></linearGradient></defs><g transform="translate(-459.5 -679.5)"><g transform="translate(459.5 679.5)"><g transform="translate(0 175.453)"><path d="M5.489,284.687h7.057v4.966H5.489v14.376H0V269.2H14.507v4.966H5.489Z" transform="translate(0 -268.743)" fill="#fff"/><path d="M30.9,269.2h5.489v34.829H30.9Z" transform="translate(-10.708 -268.743)" fill="#fff"/><path d="M50,269.2h5.489v29.863h9.018v4.966H50Z" transform="translate(-17.327 -268.743)" fill="#fff"/><path d="M85.989,283.8H93.5v4.966H85.989v10.194h9.475v4.966H80.5V269.1H95.464v4.966H85.989Z" transform="translate(-27.897 -268.708)" fill="#fff"/><path d="M137.171,297.625l4.182-28.425h5.032l-5.358,34.829h-8.168L127.5,269.2h5.554Z" transform="translate(-44.184 -268.743)" fill="#fff"/><path d="M164.9,269.2h5.489v34.829H164.9Z" transform="translate(-57.145 -268.743)" fill="#fff"/><path d="M189.524,283.8h7.58v4.966h-7.515v10.194h9.475v4.966H184.1V269.1h14.964v4.966h-9.475V283.8Z" transform="translate(-63.799 -268.708)" fill="#fff"/><path d="M228.3,285.471l-2.026,18.558h-7.515L214.9,269.2h5.358l2.941,27.511,2.614-27.511h5.293l2.745,27.707,2.81-27.707h4.77l-3.921,34.829h-7.253Z" transform="translate(-74.472 -268.743)" fill="#fff"/><path d="M269.789,283.8H277.3v4.966h-7.515v10.194h9.475v4.966H264.3V269.1h14.964v4.966h-9.475Z" transform="translate(-91.592 -268.708)" fill="#fff"/><path d="M308.435,303.995c-.327-.915-.523-1.438-.523-4.313v-5.489c0-3.267-1.111-4.444-3.594-4.444h-1.895v14.18H297V269.1h8.3c5.685,0,8.1,2.614,8.1,8.037v2.745c0,3.594-1.111,5.946-3.594,7.057,2.745,1.111,3.659,3.79,3.659,7.449v5.358a10.8,10.8,0,0,0,.588,4.247h-5.62Zm-5.946-29.863v10.717h2.156c2.026,0,3.267-.915,3.267-3.659v-3.463c0-2.483-.849-3.594-2.81-3.594Z" transform="translate(-102.924 -268.708)" fill="#fff"/><path d="M364.971,277.726v4.509c0,5.554-2.679,8.626-8.168,8.626h-2.614v13.069H348.7V269.1h8.038C362.292,269.165,364.971,272.171,364.971,277.726Zm-10.717-3.594v11.828h2.614c1.764,0,2.679-.784,2.679-3.267v-5.228c0-2.483-.98-3.267-2.679-3.267h-2.614Z" transform="translate(-120.84 -268.708)" fill="#fff"/><path d="M382.5,269.2h5.489v29.863h9.018v4.966H382.5V269.2Z" transform="translate(-132.553 -268.743)" fill="#fff"/><path d="M418.054,269.2v26.922c0,2.483,1.111,3.4,2.81,3.4,1.764,0,2.81-.915,2.81-3.4V269.2h5.162v26.53c0,5.554-2.81,8.756-8.168,8.756s-8.168-3.2-8.168-8.756V269.2Z" transform="translate(-142.949 -268.743)" fill="#fff"/><path d="M454.934,268.5c5.358,0,8.037,3.2,8.037,8.756v1.111h-5.162V276.93c0-2.483-.98-3.463-2.745-3.463s-2.745.98-2.745,3.463c0,7.188,10.717,8.495,10.717,18.493,0,5.554-2.81,8.756-8.168,8.756s-8.168-3.2-8.168-8.756v-2.156h5.162v2.483c0,2.483,1.111,3.4,2.81,3.4,1.764,0,2.81-.915,2.81-3.4,0-7.188-10.717-8.495-10.717-18.493C446.831,271.7,449.575,268.5,454.934,268.5Z" transform="translate(-154.801 -268.5)" fill="#fff"/><path d="M508.082,277.552c0-3.137-1.111-3.986-2.81-3.986-1.764,0-2.81.98-2.81,3.463v2.222H497.3v-1.895c0-5.554,2.81-8.756,8.168-8.756s8.168,3.2,8.168,8.756v.915c0,3.725-1.176,6.077-3.855,7.188,2.745,1.176,3.855,3.79,3.855,7.319v2.745c0,5.554-2.81,8.756-8.168,8.756s-8.168-3.2-8.168-8.756v-2.875h5.162v3.267c0,2.483,1.111,3.463,2.81,3.463,1.764,0,2.81-.849,2.81-3.921v-2.745c0-3.2-1.111-4.443-3.594-4.443h-1.83V283.3h2.156c2.026,0,3.267-.915,3.267-3.659Z" transform="translate(-172.336 -268.535)" fill="#fff"/></g><g transform="translate(99.717)"><g transform="translate(8.364 8.364)"><path d="M215.128,12.8a49.728,49.728,0,1,0,49.728,49.728A49.71,49.71,0,0,0,215.128,12.8Z" transform="translate(-165.4 -12.8)" fill="#fff176"/></g><path d="M215.128,128.994a49.743,49.743,0,0,0,14.7-2.222V99.262H191.669V61.1H168.863a49.671,49.671,0,0,0,46.265,67.894Z" transform="translate(-157.036 -21.174)" fill="#0091ea"/><g transform="translate(34.699 24.831)"><path d="M271.812,49.828H259.985V38h-7.057V49.828H241.1v7.057h11.828V68.712h7.057V56.885h11.828Z" transform="translate(-217.968 -38)" fill="#0064b7"/><path d="M243.8,99.162H205.7V61Z" transform="translate(-205.7 -45.971)" fill="#64c1ff"/><rect width="16.794" height="42.409" transform="translate(65.223 86.683) rotate(-45)" fill="#fff"/></g><path d="M210.692,8.364a49.728,49.728,0,1,1-49.728,49.728A49.71,49.71,0,0,1,210.692,8.364m0-8.364a58.092,58.092,0,1,0,58.092,58.092A58.175,58.175,0,0,0,210.692,0Z" transform="translate(-152.6)" fill="#fff"/><path d="M235.006,148.84a48.44,48.44,0,0,0,8.756-1.83V119.5H205.6Z" transform="translate(-170.967 -41.412)" opacity="0.2" fill="url(#a)"/><path d="M299.2,152.865l6.665,6.665,6.665-6.665-6.665-6.665A53.516,53.516,0,0,1,299.2,152.865Z" transform="translate(-203.403 -50.665)" fill="#64c1ff"/></g></g></g></svg>
