<?xml version="1.0" encoding="utf-8"?>
<svg xmlns="http://www.w3.org/2000/svg" viewBox="0 0 416.16 106.08"><defs><style>.cls-1{fill:#fff;}.cls-2{fill:#addab7;}.cls-3{fill:#f6b327;}.cls-4{fill:#a3a039;}</style></defs><title>HellCat-PR-Logo</title><g id="Layer_2" data-name="Layer 2"><g id="Layer_1-2" data-name="Layer 1"><path class="cls-1" d="M186.64,102.26V83.69H169.43v18.57h-8.91V58.55h8.91v17h17.21v-17h8.94v43.71Z"/><path class="cls-1" d="M210.37,87.83c.15,3,.86,5.06,2.15,6.35s3.3,1.92,6.06,1.92a13.48,13.48,0,0,0,4.22-.59A6.78,6.78,0,0,0,226,93.2L232,97.53a12.26,12.26,0,0,1-5.17,4.29,21.55,21.55,0,0,1-8.67,1.42Q210,103.24,206,99t-4-13q0-17.79,15.92-17.79,7.06,0,10.78,4t3.72,11.64v4Zm13.93-5.62q0-7.56-6.6-7.55a7.45,7.45,0,0,0-3.57.74,5.51,5.51,0,0,0-2.23,2.21,14,14,0,0,0-1.31,4.6Z"/><path class="cls-1" d="M240,102.26v-47h8.16v47Z"/><path class="cls-1" d="M258.64,102.26v-47h8.15v47Z"/><path class="cls-1" d="M313,95a17.36,17.36,0,0,1-6.9,6.18,23.1,23.1,0,0,1-10.06,2q-20.31,0-20.31-22.77,0-11.67,5.15-17.22t14.85-5.56a22.1,22.1,0,0,1,10.45,2.16,15.63,15.63,0,0,1,6.16,5.67l-6.92,5.37a14.47,14.47,0,0,0-2.78-3.28A8.69,8.69,0,0,0,299.77,66a13.18,13.18,0,0,0-3.85-.5q-5.37,0-8.19,3.42t-2.81,11.46q0,7.49,2.64,11.18T296,95.28a10.59,10.59,0,0,0,6-1.48,16.2,16.2,0,0,0,3.93-4Z"/><path class="cls-1" d="M339.23,102.26V98.82a15.11,15.11,0,0,1-10.36,4.42q-5.49,0-8.31-2.89a10.17,10.17,0,0,1-2.81-7.4,10.88,10.88,0,0,1,1.44-5.85,9.68,9.68,0,0,1,4.26-3.62,26.63,26.63,0,0,1,8.14-1.84l7-.67V79.49c0-1.85-.56-3.12-1.67-3.81a9.54,9.54,0,0,0-4.9-1,10.83,10.83,0,0,0-4.57.88,6,6,0,0,0-2.82,2.53L318.26,74a10.63,10.63,0,0,1,5.24-4.31,22.26,22.26,0,0,1,8.63-1.5c5.15,0,8.88.9,11.16,2.7s3.43,4.76,3.43,8.86v22.52Zm-.66-15.38-4.14.38q-4.4.38-6.33,1.67a4.36,4.36,0,0,0-1.94,3.89,3.46,3.46,0,0,0,1.26,3.11,6,6,0,0,0,3.35.84,9.36,9.36,0,0,0,3.61-.93,17.39,17.39,0,0,0,4.19-2.64Z"/><path class="cls-1" d="M374.64,102.26a23.8,23.8,0,0,1-6.91,1q-5.76,0-8.28-2.59t-2.53-8.4V75.6h-4.2V69.13h4.2V59.9h8.15v9.23h7.71V75.6h-7.71V91.21c0,2.06.32,3.46,1,4.2a3.41,3.41,0,0,0,2.73,1.11,11.55,11.55,0,0,0,4.45-.92Z"/><path class="cls-1" d="M397.51,89.93a10.26,10.26,0,0,1-.43,3.19,5.05,5.05,0,0,1-1.32,2.14,5.37,5.37,0,0,1-2.24,1.2,11.74,11.74,0,0,1-3.16.38h-3.45v7.29h-2V83.48h5.72q3.54,0,5.22,1.6A6.45,6.45,0,0,1,397.51,89.93Zm-2.16,0a6.56,6.56,0,0,0-.34-2.24,3.4,3.4,0,0,0-1-1.44,3.73,3.73,0,0,0-1.54-.77,8.71,8.71,0,0,0-2.08-.23h-3.51V95H390a11.05,11.05,0,0,0,2.39-.22,3.64,3.64,0,0,0,1.65-.79,3.3,3.3,0,0,0,1-1.53A8.12,8.12,0,0,0,395.35,90Z"/><path class="cls-1" d="M413.75,104.13l-5.29-8.74h-4.34v8.74h-2V83.48H408a13.31,13.31,0,0,1,3,.3,5.55,5.55,0,0,1,2.17,1,4.25,4.25,0,0,1,1.33,1.78,7.1,7.1,0,0,1,.45,2.69,8.75,8.75,0,0,1-.29,2.38,4.73,4.73,0,0,1-.85,1.71,4.21,4.21,0,0,1-1.38,1.13,7.46,7.46,0,0,1-1.85.65l5.62,9Zm-1-14.82a5.91,5.91,0,0,0-.25-1.85,2.83,2.83,0,0,0-.82-1.26,3.63,3.63,0,0,0-1.49-.71,9.64,9.64,0,0,0-2.26-.22h-3.82v8.31h3.73a10.14,10.14,0,0,0,2.34-.23,3.4,3.4,0,0,0,1.51-.74,2.79,2.79,0,0,0,.81-1.32A6.67,6.67,0,0,0,412.76,89.31Z"/><path class="cls-2" d="M87.88,16.38A32.25,32.25,0,0,0,74.46,0a32.1,32.1,0,0,0-6.19,4.93,32.22,32.22,0,0,1,8.07,14A44.64,44.64,0,0,1,87.88,16.38Z"/><path class="cls-2" d="M46.69,61.15a44.69,44.69,0,0,1,3.9-18.33,32.18,32.18,0,0,1-1.93-26.44c-1.23-.1-2.47-.15-3.73-.15a44.94,44.94,0,0,0-15.28,2.66A32.26,32.26,0,0,0,15.4,0,32.19,32.19,0,0,0,3.9,42.82,44.94,44.94,0,0,0,68.27,99.55,44.91,44.91,0,0,1,46.69,61.15Z"/><path class="cls-3" d="M68.27,4.93A32.34,32.34,0,0,0,62.09,0,32.32,32.32,0,0,0,48.66,16.38a44.71,44.71,0,0,1,11.55,2.51A32.1,32.1,0,0,1,68.27,4.93Z"/><path class="cls-3" d="M136.54,27.46A32.16,32.16,0,0,0,121.14,0,32.2,32.2,0,0,0,106.9,18.89a45,45,0,0,0-15.28-2.66c-1.26,0-2.51.05-3.74.15A32.11,32.11,0,0,1,86,42.82,45,45,0,0,1,68.27,99.55a44.94,44.94,0,0,0,64.37-56.73A31.94,31.94,0,0,0,136.54,27.46Z"/><path class="cls-4" d="M89.86,61.15A44.85,44.85,0,0,0,86,42.82a32.11,32.11,0,0,0,1.92-26.44,44.64,44.64,0,0,0-11.54,2.51,32.22,32.22,0,0,0-8.07-14,32.1,32.1,0,0,0-8.06,14,44.71,44.71,0,0,0-11.55-2.51,32.18,32.18,0,0,0,1.93,26.44A45,45,0,0,0,68.27,99.55,44.9,44.9,0,0,0,89.86,61.15Z"/><path class="cls-1" d="M69.42,58.83v5.31H67.14V58.83H62.06V56.54h5.08V51.21h2.28v5.33h5.06v2.29Z"/><path class="cls-1" d="M33.66,70V59.44H29.8V70H27.28V47.23H29.8v10.1h3.86V47.23h2.51V70Z"/><path class="cls-1" d="M101,70.16a2.46,2.46,0,0,1-2.45-2.45V49.47A2.45,2.45,0,0,1,101,47h3.72a2.42,2.42,0,0,1,2.41,2.44v3.59h-2.51V49.13h-3.56V68.05h3.56V63.68h2.51v4a2.43,2.43,0,0,1-2.41,2.45Z"/></g></g></svg>
