<?xml version="1.0" encoding="utf-8"?>
<svg xmlns="http://www.w3.org/2000/svg" viewBox="0 0 485.58 222.47"><defs><style>.cls-1{fill:#b11f24;}.cls-2{fill:#fff;}.cls-3{fill:#d1d3d4;}.cls-4{fill:#595a5c;}</style></defs><title>Wingin-University-Logo</title><g id="Layer_2" data-name="Layer 2"><g id="Layer_1-2" data-name="Layer 1"><path class="cls-1" d="M286.27,0c.45-.73-9.75,12.24-69.4,38.43-25.52,11.2-56.24,14.91-85.4,19.84-17.46,3-34,5.74-49.84,9.49C29.75,80,0,100.94,0,125.14c0,23.73,18.72,38.55,19.51,39.17l10.12,7.87a47.44,47.44,0,0,0,20.62,19.67l11.49,5.39.15-.35a56.64,56.64,0,0,0,12.54,13.6L89.3,221.67l4.39-18.08A44.1,44.1,0,0,1,105.78,185C121,170.83,129.69,167.73,142.84,163a236.65,236.65,0,0,0,28.54-11.87,130.28,130.28,0,0,0,51.41-46.65c19.09-16.34,26.08-33.26,27.42-38.7C267,52.31,276.1,39.05,280.78,29.37A61,61,0,0,0,286.27,0Z"/><path class="cls-2" d="M27,154.64s-14.78-11.49-14.78-29.5S41.72,89.8,84.45,79.71,178.51,66,221.18,49.92s48.38-25.45,48.38-25.45S257.47,52.16,214,74.59,121.48,97.8,83.12,111.1,37.17,130.86,27,154.64Z"/><path class="cls-3" d="M27,154.64c3.61-24.36,13-35.69,51.41-49s92.2-16.09,130.91-35.51C253,48.22,269.56,24.47,269.56,24.47S257.47,52.16,214,74.59,121.48,97.8,83.12,111.1,37.17,130.86,27,154.64Z"/><path class="cls-2" d="M55.45,180.77s-18.21-8.54-18.21-27,22.78-32,67.95-43.5,42.53-7.9,74.2-17.23S233,73,237.09,67.13c0,0-10.91,28.43-51.84,46.32-28.44,12.43-46,10.24-86.13,26.92C67,153.74,55.45,180.77,55.45,180.77Z"/><path class="cls-3" d="M55.45,180.77s-2-25.8,39-44.48c39.54-18,49.84-14.44,85.12-25.92,47.31-15.4,57.57-43.24,57.57-43.24s-10.91,28.43-51.84,46.32c-28.44,12.43-46,10.24-86.13,26.92-32.15,13.37-43.67,40.4-43.67,40.4"/><path class="cls-2" d="M81.79,200.7s-13.51-10.16-13.51-22S76.76,153.26,123.8,137s50.79-9,83.58-31.75c0,0-9.88,19.22-41.47,35S123.84,151.5,97.45,176C85,187.56,81.79,200.7,81.79,200.7Z"/><path class="cls-3" d="M207.38,105.23s-15.84,17.58-46.88,32.26c-29.86,14.12-42.06,11.28-68.46,35.78C79.58,184.83,81.79,200.7,81.79,200.7S85,187.56,97.45,176c26.39-24.49,36.88-20,68.46-35.78S207.38,105.23,207.38,105.23Z"/><path class="cls-2" d="M480.87,67.41c-5.06-6.6-13.44-9.95-24.9-9.95a34.51,34.51,0,0,0-16.65,3.89l.68-2.56H405l-2.2,8.2c-5.07-6.32-13.15-9.53-24-9.53-11.29,0-20.16,4.14-25.56,11.62-.36-.57-.73-1.13-1.15-1.67-5.06-6.6-13.44-9.95-24.9-9.95a34.47,34.47,0,0,0-16.64,3.89l.68-2.56H207.86l-23,86.51c-3.08,11.46-2.18,20.48,2.67,26.8,2.84,3.71,8.35,8.13,18.46,8.13a25,25,0,0,0,13.54-3.79,25.17,25.17,0,0,0,14,3.79,27.71,27.71,0,0,0,10.88-2.13l-.21.81h88l2.23-8.33c5.1,6.4,13.42,9.65,24.77,9.65a36.11,36.11,0,0,0,14.06-2.64l-.35,1.32h88l23.12-86.52C486.85,82.19,485.76,73.79,480.87,67.41Z"/><path class="cls-1" d="M273.11,69.29,250,156.1c-2.38,9-8.07,13.63-16.41,13.63-7.81,0-12-3.58-12.57-10.59-3.31,7-8.34,10.59-14.95,10.59-11,0-14.82-7.41-11-21.7l20.91-78.74h13.23l-21.3,79.93c-1.32,4.89-.4,7.41,2.78,7.41,2.64,0,4.37-1.46,5-4.24l22.23-83.1h13.23l-21.3,79.93c-1.33,4.89-.27,7.41,3,7.41,2.65,0,4.37-1.46,5-4.24l22-83.1Z"/><path class="cls-1" d="M271.12,168.4H257.88l26.47-99.11h13.23Z"/><path class="cls-1" d="M332.38,88.48c1.33-4.9-.66-7.41-6.35-7.41q-5.36,0-6.75,5.56l-22,81.77H284.08l23.29-86.8c2.38-9,9.27-13.63,19.85-13.63,15.62,0,21.84,7.41,18,21.7l-21,78.73H311Z"/><path class="cls-1" d="M396.69,89.67,395.5,95H382.4l1.45-6.48c1.06-4.9-.79-7.41-5.69-7.41-3.83,0-6.48,1.85-7.41,5.56l-16.67,62.59c-1.32,4.89.79,7.41,5.82,7.41a6.78,6.78,0,0,0,7.15-5.56l6.35-23.29h-6.88l3.31-12.57h20.24l-11,40.89c-2.38,9-9.13,13.63-19.85,13.63-15.75,0-22-7.41-18.13-21.7L358.84,81.6c2.39-9,9.27-13.63,20-13.63C393.78,68,399.87,75.38,396.69,89.67Z"/><path class="cls-1" d="M399.86,168.4H386.63l26.46-99.11h13.24Z"/><path class="cls-1" d="M461.13,88.48c1.32-4.9-.66-7.41-6.35-7.41q-5.37,0-6.75,5.56l-22,81.77H412.83l23.29-86.8C438.5,72.6,445.38,68,456,68c15.61,0,21.83,7.41,18,21.7l-21,78.73H439.69Z"/><path class="cls-4" d="M123.73,214.09c-.54,2,.22,3,2.17,3a2.77,2.77,0,0,0,2.92-2.28l8.92-33.41h5.4l-9.46,35.47c-1,3.68-3.73,5.57-8.05,5.57-6.28,0-8.76-3-7.19-8.87l8.65-32.17h5.35Z"/><path class="cls-4" d="M172.88,189.27c.54-2-.27-3-2.6-3a2.62,2.62,0,0,0-2.75,2.27l-9,33.41h-5.41l9.52-35.47c1-3.67,3.78-5.57,8.11-5.57,6.38,0,8.92,3,7.35,8.87l-8.59,32.17h-5.41Z"/><path class="cls-4" d="M196,221.93h-5.41l10.81-40.5h5.41Z"/><path class="cls-4" d="M227.8,215.22c-.05.33,0,.49.11.49s.22-.16.33-.43l12.27-33.85h5.41l-13,35.47c-1.46,4-3.3,5.57-5.95,5.57-3.78,0-5-2.22-4.38-6.71l4.92-34.33h5.41Z"/><path class="cls-4" d="M270,189.76l-2.22,8.33h7.95l-1.35,5.13h-8l-2.7,10.06c-.6,2.32.21,3.51,2.43,3.51h6.43l-1.35,5.14h-6.16c-6.06,0-8.33-3-6.71-9l2.6-9.73h-3.3l1.35-5.13h3.35l3-11.41c1-3.52,3.62-5.25,8.06-5.25h8.59l-1.46,5.36h-7A3.49,3.49,0,0,0,270,189.76Z"/><path class="cls-4" d="M317.33,190.41,316,195.55a6.58,6.58,0,0,1-5.46,5.08c2.49.92,3.3,2.81,2.54,5.73L309,221.93h-5.51l4.05-15.09c.65-2.43.22-3.62-1.35-3.62H302.9l-5,18.71h-5.4l5-18.71h-3.3l1.35-5.13h3.36l4.43-16.66h7.3C316.68,181.43,318.9,184.41,317.33,190.41Zm-7.89-3.84h-2.06l-3.08,11.52h3.19c1.57,0,2.6-.87,3.08-2.71l1.41-5.3C312.57,187.76,311.76,186.57,309.44,186.57Z"/><path class="cls-4" d="M354,189.76l-.54,2.16h-5.41l.65-2.65c.43-1.89-.43-3-2.32-3a3,3,0,0,0-3,2.27L342,194a3.13,3.13,0,0,0,1.84,3.94l2.43,1.25c3.09,1.67,4.11,4.43,3,8.54l-2.16,8.11c-1.14,4.38-4.05,6.65-8.43,6.65-6.27,0-8.76-3-7.36-8.87l.81-3.3h5.41l-.92,3.79c-.48,2,.33,3,2.33,3a2.88,2.88,0,0,0,3-2.28l1.84-7.13c.54-2-.05-3.35-1.57-4.22l-2.38-1.19c-3.18-1.57-4.37-4.27-3.35-8.11l2.06-7.73c1-3.51,3.94-5.57,8.11-5.57C352.69,180.89,355.45,184.19,354,189.76Z"/><path class="cls-4" d="M371.34,221.93h-5.41l10.82-40.5h5.4Z"/><path class="cls-4" d="M416.7,186.57h-5.46l-9.46,35.36h-5.41l9.46-35.36h-5.46l1.35-5.14h16.33Z"/><path class="cls-4" d="M453.08,181.43l-4.86,17.95c-.87,3.35-3.25,5.19-6.82,5.52l-4.54,17h-5.4l4.65-17.52c-3.41-1.13-4.6-3.95-3.36-8.32l4.06-14.66h5.35l-4.11,15.14c-.54,2,.27,3,2.44,3a2.74,2.74,0,0,0,2.86-2.27l4.33-15.9Z"/></g></g></svg>
