<?xml version="1.0" encoding="utf-8"?>
<svg xmlns="http://www.w3.org/2000/svg" viewBox="0 0 585.72 104.12"><defs><style>.cls-1{fill:#58595b;}.cls-2{fill:#eebe29;}.cls-3{fill:#efa32c;}.cls-4{fill:#ed832b;}</style></defs><title>FMS-Insurance-Logo</title><g id="Layer_2" data-name="Layer 2"><g id="Layer_1-2" data-name="Layer 1"><path class="cls-1" d="M62.48,2.18V22.46H58.37C56.57,10.14,53.88,6.67,39.89,6.67h-11c-4,0-4.49.39-4.49,4.37V41.71h16c10.14,0,10.65-3.08,11.81-11h4.1V58.4h-4.1c-1.16-7.83-1.67-11.81-11.81-11.81h-16V74.31c0,6.67.38,6.93,12.7,7.7v4H.87V82c10.53-.77,10.78-1,10.78-7.7V13.86c0-6.67-.25-6.93-10.78-7.57V2.18Z"/><path class="cls-1" d="M66.71,86V82c6.29-.51,10-1,10.78-6.16a117.1,117.1,0,0,0,.77-15.27V13.86c0-6.67-.25-6.93-10.78-7.57V2.18h25c8.85,20.41,19.25,42.87,28.36,63.66h.26C128.57,48.9,142.56,17.33,149,2.18h24.77v4c-10.4.64-10.78.9-10.78,7.7V74.31c0,6.67.38,6.93,10.78,7.7v4h-34.4V82c10.53-.77,10.91-1,10.91-7.7v-61h-.38c-8.22,18.74-25.67,58.52-31.32,71.87H115.1c-6.81-16-23.23-54.29-30.93-71.87h-.26V60.58a118.91,118.91,0,0,0,.77,15.27C85.45,81,89,81.37,96.87,82v4Z"/><path class="cls-1" d="M228.3,23.23c-2.06-12.32-7.83-18.61-18.1-18.61-10,0-15.4,6.67-15.4,15.4,0,9.63,9.75,14.25,17.45,17.2,14.51,5.52,25.16,10.27,25.16,26.05,0,12.84-8.34,24.77-30,24.77-8.47,0-18.48-2.18-23.87-7.19l-1.29-19.63h4.11C189.54,75,196.85,83.55,208,83.55c10.65,0,17.2-5.78,17.2-16.17,0-10-10.14-15.27-18.87-18.48-12.45-4.49-22.84-9.76-22.84-24.77C183.51,7.7,196.21,0,211.23,0c8.21,0,16.68,2.31,21.3,5.13v18.1Z"/><path class="cls-1" d="M260,81c0,3.26.19,3.38,5.26,3.76v1.94H248.5V84.8c5.13-.38,5.26-.5,5.26-3.76V51.56c0-3.25-.13-3.38-5.26-3.69v-2h16.71v2c-5.07.31-5.26.44-5.26,3.69Z"/><path class="cls-1" d="M302.2,86.74c-8.26-11.83-16.34-23.6-24.72-35.37h-.13v23a57.58,57.58,0,0,0,.38,7.45c.37,2.57,2.19,2.69,6,3v1.94H269.09V84.8c3.07-.25,4.76-.5,5.13-3a57.58,57.58,0,0,0,.38-7.45V51.62c0-3.31-.13-3.44-5.26-3.75v-2h11.58c6.63,9.45,15,21.59,22.72,32.29l.06.13v-20a57.89,57.89,0,0,0-.37-7.45c-.38-2.57-2.26-2.69-6.08-2.94v-2H311.9v2c-3.07.25-4.63.37-5,2.94a58.54,58.54,0,0,0-.37,7.45V86.74Z"/><path class="cls-1" d="M337.44,56.13c-1-6-3.82-9.08-8.83-9.08s-7.51,3.26-7.51,7.52c0,4.69,4.76,6.94,8.51,8.38,7.07,2.69,12.27,5,12.27,12.71,0,6.26-4.07,12.08-14.65,12.08-4.13,0-9-1.06-11.64-3.51L315,74.66h2c1.56,6.69,5.13,10.89,10.58,10.89,5.19,0,8.38-2.82,8.38-7.89,0-4.88-4.94-7.45-9.2-9-6.07-2.19-11.14-4.76-11.14-12.08,0-8,6.2-11.77,13.52-11.77a21.83,21.83,0,0,1,10.39,2.51v8.82Z"/><path class="cls-1" d="M386.44,45.87v1.94c-5.07.37-5.25.5-5.25,3.81V71.9a20.7,20.7,0,0,1-1.63,8.7c-2.76,5.76-9,7.14-15,7.14s-12-1.44-14.71-7.07A20.67,20.67,0,0,1,348.26,72V51.56c0-3.25-.12-3.38-5.26-3.69v-2h16.78v2c-5.07.31-5.26.44-5.26,3.69V70.84c0,7.07,1.63,14.71,10.14,14.71,8.89,0,10.52-7.2,10.52-14.71V51.56c0-3.25-.13-3.38-5.26-3.69v-2Z"/><path class="cls-1" d="M399.77,81c0,3.26.19,3.38,5.26,3.76v1.94H388.25V84.8c5.14-.38,5.26-.5,5.26-3.76V51.56c0-3.25-.12-3.38-5.26-3.69v-2h18.22c10.2,0,13,4.5,13,10.07s-4,9-9.52,10.08v.13c6.26,1.5,8,5.82,8.7,11,.57,4.07,1.51,7.14,6.08,7.64v1.94H419.8c-3.63,0-5.95-1.32-6.82-5.14-.63-2.75-1.32-7.32-1.75-9-1.07-4.25-4-5.38-7.64-5.38h-3.82Zm0-16h4.45c5.75,0,8.57-2.44,8.57-8.51,0-7.83-4.88-8.45-9.2-8.45-3.82,0-3.82.43-3.82,2.94Z"/><path class="cls-1" d="M449.53,86.74V84.8l2.75-.25c1.82-.19,2.13-.88,1.51-2.51-1-2.88-3.13-9-3.89-11H436.7c-1.32,4.19-2.57,7.57-3.51,11.14-.5,1.5-.31,2.13,1.44,2.31l3.07.32v1.94h-13V84.8c3.69-.19,4.26-.88,5.51-4.07,4.25-11.08,8.51-23.66,12.52-35.11h4.75c3.32,9.76,9.39,27,12.52,35.67,1.07,3,1.69,3.19,5.07,3.51v1.94Zm-6.14-35h-.18c-1.76,5.07-3.88,11.26-5.7,17.08h11.64C447.84,64.52,444.77,55.57,443.39,51.69Z"/><path class="cls-1" d="M500.16,86.74c-8.26-11.83-16.33-23.6-24.72-35.37h-.13v23a57.58,57.58,0,0,0,.38,7.45c.38,2.57,2.19,2.69,6,3v1.94H467.05V84.8c3.07-.25,4.76-.5,5.13-3a55.83,55.83,0,0,0,.38-7.45V51.62c0-3.31-.12-3.44-5.26-3.75v-2h11.58c6.64,9.45,15,21.59,22.72,32.29l.07.13v-20a57.58,57.58,0,0,0-.38-7.45c-.38-2.57-2.25-2.69-6.07-2.94v-2h14.65v2c-3.07.25-4.64.37-5,2.94a58.23,58.23,0,0,0-.38,7.45V86.74Z"/><path class="cls-1" d="M548.67,75l-.82,10.14c-2.87,1.57-8.32,2.63-13,2.63-14.15,0-21.66-6.76-21.66-21.16,0-6.63,1.94-11.83,5.38-15.58,3.51-4,9.33-6.2,16.65-6.2a31.19,31.19,0,0,1,12.58,2.38v9.51h-2.06c-1.13-6.88-5-9.64-11.08-9.64-11,0-14.46,10-14.46,19.35,0,7.07,2.31,19.15,14.39,19.15,7.64,0,10.4-4.38,12.09-10.58Z"/><path class="cls-1" d="M558.56,51.56c0-3.25-.13-3.38-5.26-3.69v-2h30v9.82h-2c-.88-6.13-2.26-7.63-8.95-7.63h-5.39c-1.87,0-2.13.25-2.13,2.12V64.27h7.7c5,0,5.2-1.69,5.76-5.32h2v13.2h-2c-.5-3.75-.81-5.5-5.76-5.5h-7.7V79.54c0,3.94.63,4.94,7.45,4.94,7.39,0,10-1.44,11.4-8.57h2.06l-1.25,10.83H553.3V84.8c5.13-.38,5.26-.5,5.26-3.76Z"/><rect class="cls-2" x="248.03" y="24.87" width="108.23" height="13.91"/><rect class="cls-3" x="361.69" y="24.87" width="108.23" height="13.91"/><rect class="cls-4" x="474.94" y="24.87" width="108.23" height="13.91"/><rect class="cls-1" y="101.58" width="584.23" height="2.54"/></g></g></svg>
