<?xml version="1.0" encoding="utf-8"?>
<svg xmlns="http://www.w3.org/2000/svg" xmlns:xlink="http://www.w3.org/1999/xlink" width="264.998" height="264.997" viewBox="0 0 264.998 264.997"><defs><clipPath id="a"><rect width="16.418" height="26.549" fill="none"/></clipPath></defs><g transform="translate(-71.134 -71.134)"><circle cx="131.767" cy="131.767" r="131.767" transform="translate(71.866 71.866)" fill="#009444"/><g transform="translate(82.562 82.562)"><circle cx="121.07" cy="121.07" r="121.07" fill="#009444"/><path d="M214.014,102.556a111.084,111.084,0,1,1-43.381,8.755,110.749,110.749,0,0,1,43.381-8.755m0-9.612a121.07,121.07,0,1,0,121.07,121.07,121.07,121.07,0,0,0-121.07-121.07Z" transform="translate(-92.944 -92.944)" fill="#fff"/></g><g transform="translate(82.562 82.562)"><circle cx="121.07" cy="121.07" r="121.07" fill="#009444"/><path d="M214.014,102.556a111.084,111.084,0,1,1-43.381,8.755,110.749,110.749,0,0,1,43.381-8.755m0-9.612a121.07,121.07,0,1,0,121.07,121.07,121.07,121.07,0,0,0-121.07-121.07Z" transform="translate(-92.944 -92.944)" fill="#fff"/></g><g transform="translate(179.332 83.424)"><path d="M326.225,155.153,301.19,170.907l-23.566-15.754V94.589h48.6Z" transform="translate(-277.624 -94.589)" fill="#fff"/><g transform="translate(16.55 13.468)"><path d="M317.65,151.525l10.216-.157-15.247,17.767,7.388-15.252-9.748-.472,10.216-14.459-10.216.157L325.5,121.342l-7.388,15.252,9.748.472Z" transform="translate(-309.708 -120.792)" fill="#58595b"/><path d="M312.118,169.185a.551.551,0,0,1-.495-.79l7.025-14.5-8.917-.432a.55.55,0,0,1-.422-.867l9.591-13.574-9.133.14a.531.531,0,0,1-.507-.316.551.551,0,0,1,.081-.592l15.247-17.767a.55.55,0,0,1,.913.6l-7.025,14.5,8.916.432a.55.55,0,0,1,.423.867l-9.591,13.574,9.134-.14a.535.535,0,0,1,.507.316.551.551,0,0,1-.081.592l-15.247,17.767A.55.55,0,0,1,312.118,169.185Zm-1.331-16.775,8.746.424a.55.55,0,0,1,.469.79l-5.54,11.436,11.69-13.623-8.994.138a.508.508,0,0,1-.495-.293.551.551,0,0,1,.037-.575l9.637-13.639-8.747-.424a.55.55,0,0,1-.468-.79l5.54-11.436-11.69,13.623,8.994-.138a.536.536,0,0,1,.495.293.551.551,0,0,1-.037.575Z" transform="translate(-309.208 -120.292)" fill="#58595b"/></g></g><g transform="translate(283.477 197.767)"><path d="M481.213,315.436l.46,2.5-5-3.013,4.053,1.186-.286-2.415,3.975,1.913-.46-2.5,5,3.013-4.053-1.186.286,2.415Z" transform="translate(-476.521 -312.95)" fill="#fff"/><path d="M481.53,317.954a.157.157,0,0,1-.081-.023l-5-3.013a.157.157,0,0,1,.125-.286l3.825,1.118-.258-2.178a.157.157,0,0,1,.064-.147.154.154,0,0,1,.159-.014l3.7,1.779-.4-2.2a.158.158,0,0,1,.236-.163l5,3.013a.157.157,0,0,1-.125.286l-3.825-1.119.258,2.178a.156.156,0,0,1-.064.147.158.158,0,0,1-.16.014l-3.7-1.779.4,2.2a.158.158,0,0,1-.065.158A.156.156,0,0,1,481.53,317.954Zm-3.875-2.679,3.657,2.207-.4-2.16a.158.158,0,0,1,.223-.17l3.716,1.789-.252-2.13a.156.156,0,0,1,.054-.139.159.159,0,0,1,.146-.03l2.89.845-3.658-2.206.4,2.16a.157.157,0,0,1-.223.17l-3.717-1.789.252,2.13a.156.156,0,0,1-.054.139.154.154,0,0,1-.146.03Z" transform="translate(-476.378 -312.806)" fill="#fff"/></g><g transform="translate(110.751 123.5)"><g transform="translate(0 0)"><path d="M153.788,304.2l.56-7.3.155.012a9.594,9.594,0,0,1,6.024,2.748,6.778,6.778,0,0,1,1.6,5.4,6.943,6.943,0,0,1-2.465,5.224,8.4,8.4,0,0,1-11.188-.814,7.594,7.594,0,0,1-1.7-5.944,7.43,7.43,0,0,1,1.42-4.04,8.148,8.148,0,0,1,2.808-2.181l1.419,3.194a4.453,4.453,0,0,0-1.688,1.179,3.705,3.705,0,0,0-.878,2.2,3.991,3.991,0,0,0,.957,3.136,5.051,5.051,0,0,0,3.389,1.525,4.639,4.639,0,0,0,3.47-.976,3.882,3.882,0,0,0,1.375-2.89,3.79,3.79,0,0,0-.6-2.62,3.449,3.449,0,0,0-1.662-1.193l-.272,3.551Z" transform="translate(-146.741 -230.965)" fill="#fff"/><path d="M154.53,264.523a5.28,5.28,0,0,1,2.409-3.16,4.45,4.45,0,0,1,3.533-.172,4.037,4.037,0,0,1,2.488,2.045,4.648,4.648,0,0,1,.418,2.309l7.164-2.387-1.317,3.945-6.78,1.932,5.518,1.844-1.08,3.231-13.993-4.677Zm5.8,3.8.245-.735a2.8,2.8,0,0,0,.037-2.134,1.981,1.981,0,0,0-1.188-.98,1.789,1.789,0,0,0-1.644.173,3.328,3.328,0,0,0-1.036,1.636l-.252.755Z" transform="translate(-149.668 -213.837)" fill="#fff"/><path d="M174.123,228.6l-2.493,4.256,2.462,1.443,2.371-4.047,2.482,1.454-2.371,4.047L179.4,237.4l2.494-4.256,2.481,1.453-4.215,7.2-12.732-7.458,4.215-7.2Z" transform="translate(-156.587 -197.762)" fill="#fff"/><path d="M194.087,202.156l-3.268,3.695,2.138,1.891,3.106-3.513,2.156,1.905-3.107,3.513,2.453,2.168,3.268-3.695,2.154,1.9-5.524,6.247L186.409,206.5l5.523-6.248Z" transform="translate(-165.624 -184.961)" fill="#fff"/><path d="M219.5,191.411l-8.467-12.088,2.429-1.7,12.019,3.2-5.458-7.793,2.791-1.956,8.467,12.089-2.428,1.7-12.044-3.234,5.484,7.829Z" transform="translate(-177.346 -171.071)" fill="#fff"/></g></g><g transform="translate(241.284 119.863)"><g transform="translate(0 0)"><path d="M402.678,166.065l-2.713,9.905,7.975-6.472,1.964,1.282-2.714,9.906,7.975-6.472,2.965,1.935-12.271,9.612-2.409-1.572,2.3-9.2-7.49,5.811-2.409-1.572,3.86-15.1Z" transform="translate(-395.855 -164.13)" fill="#fff"/><path d="M443.078,202.413l-10.736,10.126L430,210.061l10.736-10.126Z" transform="translate(-412.11 -181.174)" fill="#fff"/><path d="M443.854,227.458l12.572-7.721,1.552,2.526-3.914,11.8,8.1-4.978,1.783,2.9-12.572,7.723-1.552-2.526,3.951-11.824-8.142,5Z" transform="translate(-418.703 -190.6)" fill="#fff"/><path d="M474.361,272.1l2.018,7.039-.149.042a9.586,9.586,0,0,1-6.6-.476,6.774,6.774,0,0,1-3.388-4.506,6.948,6.948,0,0,1,.489-5.758,8.4,8.4,0,0,1,10.771-3.134,7.593,7.593,0,0,1,3.661,4.98,7.434,7.434,0,0,1,.077,4.282,8.151,8.151,0,0,1-1.872,3.022l-2.443-2.5a4.466,4.466,0,0,0,1.171-1.694,3.69,3.69,0,0,0,.058-2.364,3.99,3.99,0,0,0-1.99-2.606,5.054,5.054,0,0,0-3.708-.249,4.639,4.639,0,0,0-2.912,2.124,3.879,3.879,0,0,0-.282,3.188,3.779,3.779,0,0,0,1.472,2.247,3.446,3.446,0,0,0,1.973.539l-.982-3.424Z" transform="translate(-429.168 -211.884)" fill="#fff"/></g></g><g transform="translate(135.72 225.535)"><path d="M206.369,366.815v4.632h-7.027V381.4h4.9v4.631h-4.9V397.69H206.8v4.632h-12.4V366.815Z" transform="translate(-194.392 -366.283)" fill="#fff"/><path d="M252.92,402.322H247.97l-5.856-18.631v18.631h-4.951V366.815h4.259l6.548,20.921V366.815h4.951Z" transform="translate(-214.752 -366.283)" fill="#fff"/><path d="M300.243,366.815v4.632h-7.027V381.4h4.9v4.631h-4.9V397.69h7.453v4.632h-12.4V366.815Z" transform="translate(-239.077 -366.283)" fill="#fff"/><path d="M335.882,366.815c3.992,0,5.8.639,7.239,2.5,1.277,1.65,1.863,4.046,1.863,7.4,0,4.419-.479,6.015-2.5,8.624l3.46,16.981H340.62l-2.875-15.278a11.162,11.162,0,0,1-1.756.213v15.065h-4.951V366.815Zm.8,15.438c1.6,0,2.5-.373,2.98-1.277.373-.692.48-1.543.48-4.791,0-3.833-.693-4.738-3.46-4.738h-.692v10.806Z" transform="translate(-259.437 -366.283)" fill="#fff"/><path d="M392.842,401.839h-2.661l-.746-2.449c-1.384,2.023-2.875,2.981-4.578,2.981a5.8,5.8,0,0,1-5.057-3.141c-.8-1.49-1.012-2.928-1.012-6.122V374.317c0-5.643,2.343-8.517,7.027-8.517,4.738,0,7.134,3.087,7.134,9.263,0,.745,0,1.437-.107,2.821h-4.951a21.836,21.836,0,0,0,.107-2.449c0-3.939-.479-5-2.236-5-1.6,0-2.023.8-2.023,3.886v18.791c0,2.608.053,2.981.319,3.567a1.826,1.826,0,0,0,1.7,1.118,1.935,1.935,0,0,0,1.81-1.277c.267-.585.32-1.118.32-3.407V388h-2.183v-4.206h7.134Z" transform="translate(-282.167 -365.8)" fill="#fff"/><path d="M423.693,366.815h5.377l2.715,13.1,2.715-13.1h5.217l-5.536,20.761v14.746h-4.951V387.576Z" transform="translate(-303.542 -366.283)" fill="#fff"/><path d="M230.723,464.814c.019.7.039,1.015.039,1.367,0,2.322-.859,3.454-2.635,3.454-1.7,0-2.557-1.053-2.557-3.122v-7.162c0-2.069.859-3.122,2.557-3.122q2.635,0,2.635,3.4c0,.313,0,.527-.039,1.035h-1.815a7.755,7.755,0,0,0,.039-.9c0-1.444-.176-1.834-.82-1.834-.586,0-.741.292-.741,1.425v7.162c0,1.132.156,1.425.741,1.425.644,0,.82-.39.82-1.776,0-.39-.019-.741-.039-1.347Z" transform="translate(-209.233 -408.844)" fill="#fff"/><path d="M251.264,463.645v5.972h-1.815V456.6h1.815v5.348h1.483V456.6h1.815v13.017h-1.815v-5.972Z" transform="translate(-220.6 -409.021)" fill="#fff"/><path d="M274.784,469.616h-1.756L274.8,456.6h2.342l1.7,13.017h-1.776l-.332-2.928H275.1Zm1.132-10.656-.625,6.031h1.249Z" transform="translate(-231.824 -409.021)" fill="#fff"/><path d="M297.8,456.6h1.815v11.32h2.576v1.7H297.8Z" transform="translate(-243.615 -409.021)" fill="#fff"/><path d="M319.442,456.6h1.815v11.32h2.576v1.7h-4.391Z" transform="translate(-253.917 -409.021)" fill="#fff"/><path d="M345.475,456.6v1.7H342.9v3.65h1.8v1.7h-1.8v4.274h2.732v1.7h-4.547V456.6Z" transform="translate(-264.219 -409.021)" fill="#fff"/><path d="M368.988,469.616h-1.815l-2.147-6.831v6.831h-1.815V456.6h1.562l2.4,7.67V456.6h1.815Z" transform="translate(-274.752 -409.021)" fill="#fff"/><path d="M393.508,469.439h-.976l-.274-.9a2.057,2.057,0,0,1-1.678,1.092,2.128,2.128,0,0,1-1.854-1.151,4.337,4.337,0,0,1-.371-2.244v-6.889c0-2.069.859-3.122,2.576-3.122,1.737,0,2.615,1.132,2.615,3.4,0,.273,0,.527-.039,1.035h-1.815a8.1,8.1,0,0,0,.039-.9c0-1.444-.176-1.834-.82-1.834-.585,0-.741.292-.741,1.425v6.889c0,.956.019,1.093.116,1.307a.669.669,0,0,0,.625.41.709.709,0,0,0,.663-.468,2.96,2.96,0,0,0,.117-1.249v-1.874h-.8v-1.542h2.615Z" transform="translate(-286.721 -408.844)" fill="#fff"/><path d="M416.736,456.6v1.7H414.16v3.65h1.8v1.7h-1.8v4.274h2.732v1.7h-4.547V456.6Z" transform="translate(-298.14 -409.021)" fill="#fff"/></g><g transform="translate(153.854 177.742)"><rect width="16.418" height="26.549" transform="translate(1.048 1.048)" fill="#fff"/><path d="M247.514,303.234H229V274.589h18.514Zm-16.418-2.1h14.322V276.685H231.1Z" transform="translate(-229 -274.589)" fill="#58595b"/><g transform="translate(6.008 5.593)"><path d="M242.9,298.325v.738c0,1.612.329,2.323,1.039,2.323.6,0,.93-.519.93-1.448v-5.493c0-.875-.274-1.312-.792-1.312s-.93.519-1.176,1.476H240.74l.273-9.346h5.93l-.082,2.378h-3.771l-.191,4.4c.738-.93,1.312-1.285,2.022-1.285,1.586,0,2.487,1.531,2.487,4.181v4.236c0,1.858-.164,2.6-.792,3.361a3.51,3.51,0,0,1-2.76,1.23c-2.159,0-3.389-1.531-3.389-4.29a8.291,8.291,0,0,1,.055-1.148Z" transform="translate(-240.466 -285.262)" fill="#58595b"/></g><g transform="translate(20.26)"><rect width="16.418" height="26.549" transform="translate(1.048 1.048)" fill="#fff"/><path d="M286.181,303.234H267.666V274.589h18.515Zm-16.419-2.1h14.323V276.685H269.762Z" transform="translate(-267.666 -274.589)" fill="#58595b"/></g><g transform="translate(26.269 5.593)"><path d="M281.564,298.325v.738c0,1.612.328,2.323,1.039,2.323.6,0,.929-.519.929-1.448v-5.493c0-.875-.274-1.312-.792-1.312s-.929.519-1.175,1.476h-2.159l.273-9.346h5.93l-.082,2.378h-3.771l-.191,4.4c.738-.93,1.312-1.285,2.022-1.285,1.586,0,2.487,1.531,2.487,4.181v4.236c0,1.858-.164,2.6-.792,3.361a3.509,3.509,0,0,1-2.76,1.23c-2.159,0-3.389-1.531-3.389-4.29a8.214,8.214,0,0,1,.055-1.148Z" transform="translate(-279.132 -285.262)" fill="#58595b"/></g><g transform="translate(40.522)"><rect width="16.418" height="26.549" transform="translate(1.048 1.048)" fill="#fff"/><path d="M324.847,303.234H306.333V274.589h18.514Zm-16.418-2.1h14.322V276.685H308.429Z" transform="translate(-306.333 -274.589)" fill="#58595b"/></g><g transform="translate(46.42 5.32)"><path d="M317.59,289.632c0-2.159.082-2.624.574-3.416a3.856,3.856,0,0,1,6.067,0c.492.792.574,1.257.574,3.416V298.6c0,2.186-.083,2.624-.574,3.416a3.812,3.812,0,0,1-6.067,0c-.492-.792-.574-1.257-.574-3.416Zm4.673-1.039c0-1.038-.3-1.476-1.066-1.476-.738,0-1.066.438-1.066,1.476v11.068c0,1.039.3,1.476,1.066,1.476.738,0,1.066-.437,1.066-1.476Z" transform="translate(-317.59 -284.741)" fill="#58595b"/></g><g transform="translate(60.783)"><rect width="16.418" height="26.549" transform="translate(1.048 1.048)" fill="#fff"/><path d="M363.514,303.234H345V274.589h18.514Zm-16.418-2.1h14.322V276.685H347.1Z" transform="translate(-345 -274.589)" fill="#58595b"/></g><g transform="translate(66.736 5.32)"><path d="M360.816,289.66c.027-.355.027-.519.027-.738,0-1.257-.3-1.8-.985-1.8a.941.941,0,0,0-.792.465,2.452,2.452,0,0,0-.164,1.257v4.045a2.579,2.579,0,0,1,1.995-1.066,2.293,2.293,0,0,1,1.859.956c.547.766.683,1.5.683,3.607v3.061c0,2.541-1.367,4.072-3.607,4.072-2.132,0-3.471-1.5-3.471-3.881V288.512c0-2.3,1.339-3.771,3.416-3.771a3.22,3.22,0,0,1,3.033,1.913,7.057,7.057,0,0,1,.41,3.006ZM358.9,300.045a1.008,1.008,0,0,0,.984,1.093c.684,0,1.011-.437,1.011-1.312v-3.935c0-1.5-.191-1.94-.847-1.94a1.58,1.58,0,0,0-1.148.655Z" transform="translate(-356.361 -284.741)" fill="#58595b"/></g><g transform="translate(81.043)"><rect width="16.418" height="26.549" transform="translate(1.048 1.048)" fill="#fff"/><path d="M402.181,303.234H383.666V274.589h18.515Zm-16.419-2.1h14.323V276.685H385.762Z" transform="translate(-383.666 -274.589)" fill="#58595b"/></g><g transform="translate(82.091 1.048)"><g clip-path="url(#a)"><g transform="translate(4.905 -0.79)"><path d="M399.482,280c.027-.355.027-.519.027-.738,0-1.257-.3-1.8-.984-1.8a.941.941,0,0,0-.792.464,2.459,2.459,0,0,0-.164,1.257v4.045a2.583,2.583,0,0,1,2-1.066,2.293,2.293,0,0,1,1.858.957c.546.765.683,1.5.683,3.607v3.061c0,2.541-1.367,4.071-3.607,4.071-2.132,0-3.471-1.5-3.471-3.88V278.852c0-2.3,1.339-3.771,3.416-3.771a3.22,3.22,0,0,1,3.033,1.913,7.061,7.061,0,0,1,.41,3.006Zm-1.913,10.385a1.009,1.009,0,0,0,.984,1.093c.683,0,1.011-.437,1.011-1.312v-3.935c0-1.5-.191-1.94-.847-1.94a1.582,1.582,0,0,0-1.148.656Z" transform="translate(-395.028 -275.081)" fill="#58595b"/></g><g transform="translate(4.96 20.792)"><path d="M397.564,329.332v.738c0,1.613.328,2.323,1.039,2.323.6,0,.929-.519.929-1.449v-5.493c0-.874-.274-1.312-.792-1.312s-.929.519-1.175,1.476h-2.159l.273-9.346h5.931l-.082,2.377h-3.771l-.191,4.4c.738-.929,1.312-1.285,2.022-1.285,1.586,0,2.487,1.531,2.487,4.181v4.236c0,1.859-.163,2.6-.792,3.361a3.51,3.51,0,0,1-2.76,1.23c-2.159,0-3.389-1.53-3.389-4.29a8.222,8.222,0,0,1,.055-1.148Z" transform="translate(-395.132 -316.27)" fill="#58595b"/></g></g></g></g><path d="M203.633,83.815A119.4,119.4,0,1,1,157,93.226a119.056,119.056,0,0,1,46.634-9.411m0-12.681a132.5,132.5,0,1,0,132.5,132.5,132.5,132.5,0,0,0-132.5-132.5Z" fill="#58595b"/></g></svg>
