<?xml version="1.0" encoding="utf-8"?>
<svg xmlns="http://www.w3.org/2000/svg" xmlns:xlink="http://www.w3.org/1999/xlink" width="226.844" height="256.22" viewBox="0 0 226.844 256.22"><defs><clipPath id="a"><path d="M0,0H202.821V79.935H0Z" fill="none"/></clipPath></defs><g transform="translate(-797.421 -3661.907)"><g transform="translate(797.421 3661.907)"><path d="M7.813,25.324a10.738,10.738,0,0,1-2.271-.232,5.988,5.988,0,0,1-2.781-1.374A6.678,6.678,0,0,1,1,20.991,19.537,19.537,0,0,1,.08,16.4a15.458,15.458,0,0,1,.446-5.59A13.258,13.258,0,0,1,2.882,6.028,12.141,12.141,0,0,1,6.914,2.64a14.913,14.913,0,0,1,5.439-1.534c.4-.039.793-.059,1.167-.059a8.422,8.422,0,0,1,2.712.415L23.559,0,22.037,17.051a6.367,6.367,0,0,0,.018,1.472,2.118,2.118,0,0,0,.739,1.483,2.274,2.274,0,0,0,1.516.545,3.917,3.917,0,0,1-1.779,2.517,6.94,6.94,0,0,1-3.266,1.189c-.287.029-.568.043-.834.043a5.435,5.435,0,0,1-2.194-.417,3.1,3.1,0,0,1-1.717-1.628,5.021,5.021,0,0,1-1.988,1.973,8.048,8.048,0,0,1-3.37,1.027C8.7,25.3,8.247,25.324,7.813,25.324ZM13.084,3.648c-.092,0-.186,0-.279.014a3.479,3.479,0,0,0-1.652.512A3.206,3.206,0,0,0,10.138,5.4a9.464,9.464,0,0,0-.72,2.172c-.2.9-.422,2.555-.665,4.92a30.84,30.84,0,0,0-.109,6.054,8.243,8.243,0,0,0,.712,3.182,1.223,1.223,0,0,0,1.032.628c.041,0,.083,0,.124-.006A3,3,0,0,0,12.78,20.8a8.106,8.106,0,0,0,1.04-3.765l1.034-12.8A3.118,3.118,0,0,0,13.084,3.648Z" transform="translate(28.307 183.344)" fill="#f6c03c"/><path d="M19.289,23.429q-5.212.508-5.612-3.489a21.387,21.387,0,0,1,.088-3.014l.381-3.986a51.739,51.739,0,0,0,.481-6.877c-.166-1.64-.741-2.418-1.715-2.317q-2.453.232-3.106,6.7L8.567,23.621,0,25.324,2.2,2.305,9.182.8,8.91,5.037Q10.516.676,16.716.059c2.006-.192,3.48.082,4.41.836a5.565,5.565,0,0,1,1.679,3.935,47.077,47.077,0,0,1-.489,8.938,20.118,20.118,0,0,0-.262,3.868,2.24,2.24,0,0,0,.746,1.579,2.265,2.265,0,0,0,1.51.54,3.913,3.913,0,0,1-1.683,2.483,6.825,6.825,0,0,1-3.338,1.189" transform="translate(55.656 181.318)" fill="#f6c03c"/><path d="M7.882,33.428a11.477,11.477,0,0,1-2.3-.222,6.086,6.086,0,0,1-2.861-1.357C1.314,30.532.433,28.2.1,24.916a16.771,16.771,0,0,1,.37-5.865,12.728,12.728,0,0,1,2.392-4.793A13.177,13.177,0,0,1,12.308,9.37c.427-.042.841-.064,1.231-.064a8.9,8.9,0,0,1,1.565.13c.01-.068.034-.244.067-.651l.078-1.345c.055-.552.121-1.284.208-2.3l.35-3.439L24.31,0l-2.3,25.213a4.456,4.456,0,0,0,.026.689l.069.683a2.87,2.87,0,0,0,.641,1.594,1.474,1.474,0,0,0,1.162.589c.052,0,.106,0,.159-.008a5.345,5.345,0,0,1-3.211,3.2,7.99,7.99,0,0,1-2.152.468c-.158.016-.317.024-.474.024a4.987,4.987,0,0,1-2.03-.445,3.113,3.113,0,0,1-1.69-1.623,4.79,4.79,0,0,1-1.892,1.975,7.9,7.9,0,0,1-3.32,1C8.815,33.4,8.338,33.428,7.882,33.428Zm4.951-21.5c-.182,0-.373.009-.569.028a2.694,2.694,0,0,0-2.286,1.95,26.865,26.865,0,0,0-1.153,6.1,39.8,39.8,0,0,0-.078,8.1c.167,1.63.722,2.457,1.649,2.457.054,0,.11,0,.167-.008a2.848,2.848,0,0,0,2.215-1.6,8.794,8.794,0,0,0,.995-3.76l1.073-12.725A3.479,3.479,0,0,0,12.834,11.927Z" transform="translate(81.994 169.162)" fill="#f6c03c"/><path d="M14.613,19.169a8.547,8.547,0,0,1-6.174,2.966q-5.187.516-6.649-3.143A7.9,7.9,0,0,1,1.2,16.649a13.355,13.355,0,0,1,.007-2.578L2.168,3.062,10.93,1.32,9.8,14.141c-.023.381-.057.78-.1,1.189a5.922,5.922,0,0,0-.009,1.248,2.188,2.188,0,0,0,.323,1.012,2.241,2.241,0,0,0,.592.623,2.656,2.656,0,0,0,1.492.2,2.228,2.228,0,0,0,1.63-1.3,7.876,7.876,0,0,0,.889-3.19l1.2-12.21L24.311,0,22.745,17.316q-.78,8.46-3.759,12.077a9.385,9.385,0,0,1-3.665,2.738A17.387,17.387,0,0,1,10.353,33.3a15.264,15.264,0,0,1-7.333-.716,4.315,4.315,0,0,1-3-3.547,3.3,3.3,0,0,1,1.072-2.924,5.606,5.606,0,0,1,3.338-1.358,6.593,6.593,0,0,1,3.306.459,3.5,3.5,0,0,1,1.327.959,2.248,2.248,0,0,0-.772,2.057q.19,1.9,1.936,1.731c1.916-.193,3.205-2.2,3.871-6.687q.288-1.994.513-4.109" transform="translate(109.343 175.24)" fill="#f6c03c"/><path d="M31.531,23.2q-5.122.509-5.517-3.465a25.7,25.7,0,0,1,.231-5.165q.407-3.433.526-4.811a27.722,27.722,0,0,0,.186-4.12c-.142-1.436-.751-2.1-1.822-1.993-.706.07-1.349.627-1.928,1.664A10.786,10.786,0,0,0,22.16,9.83l-1.3,13.576L12.7,25.074l1.141-11.726q.187-1.94.316-4.129T14.24,6.69c-.127-1.292-.673-1.894-1.631-1.8q-.979.1-1.889,1.643a11.336,11.336,0,0,0-1.212,4.558L8.254,24.66,0,26.337,2.212,3.488,9.025,1.96,8.73,6.3a6.765,6.765,0,0,1,2.806-3.588A11.881,11.881,0,0,1,16.64,1.2a4.886,4.886,0,0,1,3.1.59,4.188,4.188,0,0,1,1.8,2.17,5.164,5.164,0,0,1,2.326-2.6A9.645,9.645,0,0,1,27.878.081a9.068,9.068,0,0,1,3.435.153A4.788,4.788,0,0,1,33.24,1.344,6.747,6.747,0,0,1,34.8,5.416a45.508,45.508,0,0,1-.326,8.314,20.745,20.745,0,0,0-.222,3.759,2.175,2.175,0,0,0,.727,1.525,2.216,2.216,0,0,0,1.486.539,3.878,3.878,0,0,1-1.657,2.467A6.565,6.565,0,0,1,31.531,23.2" transform="translate(135.679 172.201)" fill="#f6c03c"/><path d="M7.811,25.324a10.779,10.779,0,0,1-2.27-.23A5.971,5.971,0,0,1,2.76,23.723,6.7,6.7,0,0,1,1,20.994,19.155,19.155,0,0,1,.081,16.4a15.418,15.418,0,0,1,.443-5.588A13.278,13.278,0,0,1,2.883,6.027,12.139,12.139,0,0,1,6.913,2.64a14.875,14.875,0,0,1,5.438-1.531,11.875,11.875,0,0,1,1.188-.062,8.315,8.315,0,0,1,2.695.415L23.559,0l-1.52,17.052a6.316,6.316,0,0,0,.014,1.47,2.147,2.147,0,0,0,.737,1.487,2.3,2.3,0,0,0,1.521.545,3.914,3.914,0,0,1-1.78,2.516,6.983,6.983,0,0,1-3.265,1.189,8.308,8.308,0,0,1-.83.043,5.5,5.5,0,0,1-2.2-.416,3.083,3.083,0,0,1-1.715-1.629,5.033,5.033,0,0,1-1.986,1.972,8.105,8.105,0,0,1-3.371,1.028C8.7,25.3,8.245,25.324,7.811,25.324ZM13.1,3.649h0a2.838,2.838,0,0,0-.292.015,3.59,3.59,0,0,0-1.655.505A3.252,3.252,0,0,0,10.139,5.4a9.113,9.113,0,0,0-.72,2.169,49.054,49.054,0,0,0-.664,4.921,30.692,30.692,0,0,0-.115,6.056,8.357,8.357,0,0,0,.711,3.181,1.217,1.217,0,0,0,1.024.625,1.236,1.236,0,0,0,.131-.007,2.99,2.99,0,0,0,2.271-1.539,8.1,8.1,0,0,0,1.044-3.77l1.03-12.8A3.025,3.025,0,0,0,13.1,3.65Z" transform="translate(175.185 168.149)" fill="#f6c03c"/><path d="M19.288,23.426q-5.209.517-5.611-3.487a22.021,22.021,0,0,1,.086-3.011l.382-3.987a50.243,50.243,0,0,0,.479-6.878c-.167-1.643-.733-2.418-1.711-2.321q-2.457.241-3.106,6.7L8.569,23.62,0,25.324,2.2,2.3,9.181.8,8.914,5.035q1.6-4.364,7.8-4.972c2.009-.2,3.479.081,4.412.83a5.566,5.566,0,0,1,1.68,3.937,46.734,46.734,0,0,1-.492,8.937,20.4,20.4,0,0,0-.261,3.872,2.186,2.186,0,0,0,2.256,2.117,3.894,3.894,0,0,1-1.684,2.483,6.782,6.782,0,0,1-3.338,1.186" transform="translate(202.534 166.124)" fill="#f6c03c"/><path d="M13.406,11a11.056,11.056,0,0,0,1.01-5.676c-.122-1.227-.639-1.8-1.541-1.709-.7.066-1.352.723-1.96,1.964A10.143,10.143,0,0,0,9.838,9.755l-.885,13.83L0,25.324,2.151,2.2,9.267.642l-.346,4.4a7.209,7.209,0,0,1,6.5-5,5.555,5.555,0,0,1,4.036.9,5.179,5.179,0,0,1,1.773,3.785A5.662,5.662,0,0,1,19.9,9.2a6.685,6.685,0,0,1-4.611,2.136A2.644,2.644,0,0,1,13.406,11" transform="translate(61.734 214.745)" fill="#f6c03c"/><path d="M4.747,32.414a4.725,4.725,0,0,1-3.193-1.169A4.06,4.06,0,0,1,.1,28.723,47.882,47.882,0,0,1,.675,18.384l.777-8.42L10.281,8.25l-1.3,13.721A22.727,22.727,0,0,0,8.677,26.3c.157,1.556.81,2.345,1.94,2.345l.117,0c-.685,2.208-2.5,3.466-5.38,3.742C5.148,32.4,4.944,32.414,4.747,32.414ZM5.791,6.925a5.573,5.573,0,0,1-2.6-.568A2.868,2.868,0,0,1,1.637,3.965,2.853,2.853,0,0,1,2.8,1.275,6.455,6.455,0,0,1,6.2.042C6.482.014,6.759,0,7.022,0A5.125,5.125,0,0,1,9.61.616a3,3,0,0,1,1.512,2.435A2.767,2.767,0,0,1,10,5.694a6.485,6.485,0,0,1-3.36,1.19C6.347,6.911,6.062,6.925,5.791,6.925Z" transform="translate(84.02 204.616)" fill="#f6c03c"/><path d="M19.289,23.423q-5.207.517-5.614-3.482a22.067,22.067,0,0,1,.09-3.017l.383-3.989a50.92,50.92,0,0,0,.478-6.874q-.249-2.463-1.713-2.32-2.454.237-3.105,6.7L8.567,23.62,0,25.324,2.2,2.3,9.182.8l-.27,4.234q1.6-4.361,7.8-4.974,3.015-.295,4.412.833a5.57,5.57,0,0,1,1.679,3.932,47.072,47.072,0,0,1-.488,8.941,20.317,20.317,0,0,0-.264,3.868,2.189,2.189,0,0,0,2.258,2.118,3.893,3.893,0,0,1-1.686,2.485,6.768,6.768,0,0,1-3.336,1.186" transform="translate(97.187 211.706)" fill="#f6c03c"/><path d="M1.192,23.629a24.518,24.518,0,0,1,.189-4.153L2.482,7.62,0,7.873.045,6.56A31.375,31.375,0,0,0,9.441.208L11.456,0,10.9,4.8l3.278-.334-.19,1.976-3.235.334L9.743,18.619a22.668,22.668,0,0,0-.2,3.632,2.259,2.259,0,0,0,2.007,2.323,3.912,3.912,0,0,1-1.7,2.519A7.288,7.288,0,0,1,6.272,28.33a4.244,4.244,0,0,1-3.495-1.036,5.543,5.543,0,0,1-1.585-3.665" transform="translate(123.524 205.629)" fill="#f6c03c"/><path d="M4.752,32.415a4.74,4.74,0,0,1-3.2-1.167A4.072,4.072,0,0,1,.1,28.72,48.132,48.132,0,0,1,.677,18.382l.779-8.419,8.825-1.713-1.3,13.719A22.784,22.784,0,0,0,8.677,26.3c.158,1.557.809,2.347,1.933,2.347q.062,0,.126,0c-.686,2.208-2.5,3.467-5.385,3.746C5.148,32.4,4.947,32.415,4.752,32.415ZM5.789,6.925a5.533,5.533,0,0,1-2.6-.573A2.858,2.858,0,0,1,1.636,3.966,2.858,2.858,0,0,1,2.8,1.276,6.492,6.492,0,0,1,6.2.04c.28-.026.553-.04.811-.04a5.106,5.106,0,0,1,2.6.618A2.977,2.977,0,0,1,11.122,3.05,2.771,2.771,0,0,1,10,5.7,6.514,6.514,0,0,1,6.637,6.883C6.346,6.911,6.06,6.925,5.789,6.925Z" transform="translate(139.732 199.551)" fill="#f6c03c"/><g transform="translate(0 176.285)"><path d="M0,0H202.821V79.935H0Z" transform="translate(0 0)" fill="none"/><g transform="translate(0 0)" clip-path="url(#a)"><path d="M19.209,23.644q-5.19.521-5.591-3.516a22.818,22.818,0,0,1,.088-3.044l.377-4.023a52.234,52.234,0,0,0,.482-6.937C14.4,4.466,13.83,3.682,12.858,3.78q-2.439.243-3.093,6.761L8.534,23.84,0,25.558,2.192,2.327,9.144.812l-.27,4.274Q10.475.678,16.647.06q3-.293,4.391.846a5.672,5.672,0,0,1,1.674,3.968,48.234,48.234,0,0,1-.492,9.026,20.533,20.533,0,0,0-.258,3.9,2.281,2.281,0,0,0,.742,1.593,2.24,2.24,0,0,0,1.505.543,3.955,3.955,0,0,1-1.676,2.509,6.7,6.7,0,0,1-3.324,1.2" transform="translate(153.205 29.332)" fill="#f6c03c"/><path d="M.013,53.881c-.008,0-.012,0-.013-.005-.069-.293,26.9-13.634,27.167-13.768.2,0,20.145-.354,42.3-1.314,13.087-.567,24.449-1.234,33.769-1.983,11.651-.936,20.129-2,25.2-3.169,11.051-2.549,17.739-5.578,20.445-9.261a10.431,10.431,0,0,0,1.745-5.3l.014-.131c-1.129,1.7-3.17,2.7-6.066,2.99-.385.038-.761.058-1.119.058a6.714,6.714,0,0,1-3.83-1.04c-1.261-.848-2.016-2.435-2.245-4.715a16.1,16.1,0,0,1,.276-4.645,15.486,15.486,0,0,1,1.739-4.7,12.594,12.594,0,0,1,3.324-3.8,9.143,9.143,0,0,1,4.771-1.863c.482-.047.938-.071,1.355-.071a5.9,5.9,0,0,1,2.719.528L159.881,0l-1.275,16.771c-.43,5.537-1.516,10.057-5.594,15.472-2.7,3.58-8.335,6.838-16.755,9.684-8.68,2.934-20.094,5.349-33.925,7.179-13.261,1.755-28.109,2.955-45.392,3.668-14.9.615-29.047.767-41.525.9-5.516.059-10.726.115-15.4.207ZM150.378,3.213c-.1,0-.2.005-.307.015-1.737.178-2.992,1.761-3.731,4.706a22.266,22.266,0,0,0-.458,7.59c.182,1.841.737,2.775,1.649,2.775.046,0,.094,0,.142-.007a2.8,2.8,0,0,0,1.9-1.315,5.12,5.12,0,0,0,.85-2.342L151.514,3.39a2.887,2.887,0,0,1-.441-.08A2.4,2.4,0,0,0,150.378,3.213Z" transform="translate(42.94 26.11)" fill="#f6c03c"/><path d="M24.1,27.657a2.6,2.6,0,0,0,2.387,2.456,4.357,4.357,0,0,1-2.252,2.936,8.219,8.219,0,0,1-3.457,1.167,6.342,6.342,0,0,1-2.86-.2,3.727,3.727,0,0,1-1.614-1.137,6.217,6.217,0,0,1-1.21-3.431,32.131,32.131,0,0,1,.219-5.186l.284-3.639a35.443,35.443,0,0,0,.215-5.665c-.18-1.749-.757-2.577-1.726-2.473q-1.825.191-2.72,2.983a12.911,12.911,0,0,0-.53,2.664L9.321,34.461,0,36.382,3.092,1.922,12.413,0l-.178,1.917q-.565,7.356-1.43,9.915,2.348-2.9,7.175-3.4,5.112-.529,6.4,2.748a7.066,7.066,0,0,1,.537,1.986q.095.932.1,1.668c0,.491-.026,1.182-.094,2.074l-.258,3.443-.526,5.41a9.065,9.065,0,0,0-.04,1.9" transform="translate(-0.056)" fill="#f6c03c"/></g></g><path d="M0,38.492H0L3.119,2.463,10.967.777l-.282,3.5A6.864,6.864,0,0,1,16.6.076,13.23,13.23,0,0,1,17.993,0a8.44,8.44,0,0,1,6.23,2.435,11.229,11.229,0,0,1,2.972,6.922,22.043,22.043,0,0,1-.365,7.528A14.738,14.738,0,0,1,24.2,22.419a14.34,14.34,0,0,1-4.509,3.774,14.881,14.881,0,0,1-5.459,1.734,19.669,19.669,0,0,1-2.06.128,5.147,5.147,0,0,1-1.74-.225l-.645,8.614L0,38.491ZM15.357,3.286a2.335,2.335,0,0,0-.246.013,2.944,2.944,0,0,0-2.319,1.743,11.741,11.741,0,0,0-1.02,4.6L10.677,24.487a3.351,3.351,0,0,0,2.379.65A3.549,3.549,0,0,0,15,24.427,4.141,4.141,0,0,0,16.114,22.8c.786-1.878,1.3-5.62,1.524-11.122A34.216,34.216,0,0,0,17.5,6.921a6.2,6.2,0,0,0-.825-3.031A1.655,1.655,0,0,0,15.357,3.286Z" transform="translate(32.359 215.758)" fill="#f6c03c"/><path d="M46.3,129.311c-11.535-5.9-10.327-10.209-9.315-12.179s.629-1.506,4.154-8.375,14.587-8.476,17.6-14.357-2.122-23.048,4.167-35.3,10-19.482,16.352-31.854c4.908-9.56,16.493-20.7,28.109-21.892a78.689,78.689,0,0,0-69.566,140.51l8.5-16.553" transform="translate(34.384)" fill="#f6c03c"/><path d="M73.948,0c5.206,10.1,2.907,25.332-1.861,34.594-6.35,12.332-10.061,19.54-16.348,31.755S32.484,84.41,29.47,90.27,31.6,106,28.075,112.849s-3.367,6.267-4.379,8.233-3.808,5.45-15.345-.437L0,136.869a78.9,78.9,0,0,0,27.561,4.943c43.519,0,78.8-35.112,78.8-78.427A78.193,78.193,0,0,0,73.948,0" transform="translate(86.045 15.194)" fill="#f6c03c"/></g></g></svg>
