<?xml version="1.0" encoding="utf-8"?>
<svg xmlns="http://www.w3.org/2000/svg" width="495.594" height="109.535" viewBox="0 0 495.594 109.535"><g transform="translate(0 0.107)"><path d="M10.425,81.332a8.506,8.506,0,0,0,1.369,1.173h.587c.2-1.565.2-3.129.391-4.694a2.528,2.528,0,0,1,2.934-1.956c1.565.2,2.738,1.173,2.542,2.347-.2,1.565-.2,3.325-.391,4.889h.587l1.76-1.173a11.8,11.8,0,0,1,1.565,1.565h.2c.2-1.565.2-3.325.391-4.889a2.528,2.528,0,0,1,2.934-1.956c1.565.2,2.738,1.173,2.542,2.347-.2,1.76-.2,3.325-.391,5.085h.391c.782-.391,1.369-.978,2.151-1.369a12.653,12.653,0,0,0,1.76,1.565c.2-1.76.2-3.325.391-5.085,0-1.173,1.369-2.151,2.934-1.956a2.616,2.616,0,0,1,2.738,2.347c-.2,1.76-.2,3.52-.391,5.28h0c.782-.587,1.565-.978,2.347-1.565a12.653,12.653,0,0,0,1.76,1.565c.2-1.76.2-3.325.391-5.085,0-1.173,1.369-2.151,2.934-1.956a2.616,2.616,0,0,1,2.738,2.347c-.2,1.76-.2,3.52-.391,5.28a16.314,16.314,0,0,1,2.347-1.565c.587.587,1.173.978,1.76,1.565.2-1.76.2-3.325.391-5.085,0-1.173,1.369-2.151,2.934-1.956a2.616,2.616,0,0,1,2.738,2.347c-.2,1.76-.2,3.52-.391,5.28a16.314,16.314,0,0,1,2.347-1.565c.587.587,1.173.978,1.76,1.565.2-1.76.2-3.325.391-5.085,0-1.173,1.369-2.151,2.934-1.956a2.616,2.616,0,0,1,2.738,2.347c-.2,1.76-.2,3.52-.391,5.28A16.314,16.314,0,0,1,69.1,85.048c.587.587,1.173.978,1.76,1.565.2-1.76.2-3.325.391-5.085,0-1.173,1.369-2.151,2.934-2.151a2.616,2.616,0,0,1,2.738,2.347c-.2,1.76-.2,3.52-.391,5.28a16.314,16.314,0,0,1,2.347-1.565c.587.587,1.173.978,1.76,1.565.2-1.76.2-3.325.391-5.085,0-1.173,1.369-2.151,2.934-2.151A2.616,2.616,0,0,1,86.7,82.115c-.2,1.76-.2,3.52-.391,5.28a16.314,16.314,0,0,1,2.347-1.565c.587.587,1.173.978,1.76,1.565,0-1.76.2-3.325.2-5.085,0-1.173,1.369-2.151,2.934-2.151a2.616,2.616,0,0,1,2.738,2.347c0,1.76-.2,3.52-.2,5.28l2.347-1.76c.587.587,1.173.978,1.76,1.565,0-1.76.2-3.325.2-5.085,0-1.173,1.369-2.151,2.934-2.151A2.616,2.616,0,0,1,106.06,82.7c0,1.76-.2,3.52-.2,5.28l2.347-1.76a17.1,17.1,0,0,0,1.956,1.565c0-1.76.2-3.325.2-5.085,0-1.173,1.369-2.151,2.934-2.151a2.616,2.616,0,0,1,2.738,2.347c0,1.76-.2,3.52-.2,5.28l2.347-1.76a17.1,17.1,0,0,0,1.956,1.565V82.9c0-1.173,1.369-2.151,2.934-2.151a2.616,2.616,0,0,1,2.738,2.347c0,1.76-.2,3.52-.2,5.28l2.347-1.76a17.1,17.1,0,0,0,1.956,1.565c0-1.76.2-3.325.2-5.085,0-1.173,1.369-2.151,2.934-2.151a2.487,2.487,0,0,1,2.738,2.347c0,1.76-.2,3.52-.2,5.28l2.347-1.76a17.1,17.1,0,0,0,1.956,1.565c0-1.76.2-3.325.2-5.085,0-1.173,1.369-2.151,2.934-2.151a2.487,2.487,0,0,1,2.738,2.347c0,1.76-.2,3.52-.2,5.28L147.913,87a17.1,17.1,0,0,0,1.956,1.565c0-1.76.2-3.325.2-5.085,0-1.173,1.369-2.151,2.934-2.151a2.487,2.487,0,0,1,2.738,2.347c0,1.76-.2,3.52-.2,5.28l2.347-1.76a17.1,17.1,0,0,0,1.956,1.565c0-1.76.2-3.325.2-5.085,0-1.173,1.369-2.151,2.934-2.151a2.487,2.487,0,0,1,2.738,2.347,47.659,47.659,0,0,1-.2,5.28l2.347-1.76a17.1,17.1,0,0,0,1.956,1.565,44.208,44.208,0,0,1,.2-5.085c0-1.173,1.369-2.151,2.934-2.151a2.487,2.487,0,0,1,2.738,2.347,47.659,47.659,0,0,1-.2,5.28l2.347-1.76a17.1,17.1,0,0,0,1.956,1.565,44.2,44.2,0,0,1,.2-5.085c0-1.173,1.369-2.151,2.934-2.151s2.738.978,2.738,2.151a47.659,47.659,0,0,1-.2,5.28l2.347-1.76a17.1,17.1,0,0,0,1.956,1.565V84.07c0-1.173,1.369-2.151,2.934-2.151s2.738.978,2.738,2.151v5.28l2.347-1.76c.587.587,1.369.978,1.956,1.565V84.07c0-1.173,1.369-2.151,2.934-2.151s2.738.978,2.738,2.151v5.28l2.347-1.76c.587.587,1.369.978,1.956,1.565V84.07c0-1.173,1.369-2.151,2.738-2.151,1.565,0,2.738.978,2.738,2.151v5.28l2.347-1.76c.587.587,1.369.978,1.956,1.565V84.07c0-1.173,1.369-2.151,2.738-2.151,1.565,0,2.738.978,2.738,2.151v5.28l2.347-1.76c.587.587,1.369.978,1.956,1.565V84.07c0-1.173,1.173-2.151,2.738-2.151s2.738.978,2.738,2.151v5.28l2.347-1.76c.587.587,1.369.978,1.956,1.565V84.07c0-1.173,1.173-2.151,2.738-2.151s2.738.978,2.738,2.151v5.28l2.347-1.76c.587.587,1.369.978,1.956,1.565V84.07c0-1.173,1.173-2.151,2.738-2.151s2.738.978,2.738,2.151v5.28a20.786,20.786,0,0,0,2.151-1.76c.587.587,1.369.978,1.956,1.565V84.07c0-1.173,1.173-2.151,2.738-2.151s2.738.978,2.738,2.151v5.28a20.788,20.788,0,0,0,2.151-1.76c.587.587,1.369.978,1.956,1.565V84.07c0-1.173,1.173-2.151,2.738-2.151a2.828,2.828,0,0,1,2.934,2.151v5.28a20.785,20.785,0,0,0,2.151-1.76c.587.587,1.369.978,1.956,1.565V84.07c0-1.173,1.173-2.151,2.738-2.151a2.828,2.828,0,0,1,2.934,2.151v5.28a20.785,20.785,0,0,0,2.151-1.76c.587.587,1.369.978,1.956,1.565V84.07c0-1.173,1.173-2.151,2.738-2.151a2.828,2.828,0,0,1,2.934,2.151,47.656,47.656,0,0,0,.2,5.28,20.782,20.782,0,0,0,2.151-1.76c.587.587,1.369.978,1.956,1.565a44.2,44.2,0,0,0-.2-5.085c0-1.173,1.173-2.151,2.738-2.347A2.828,2.828,0,0,1,303,83.875a47.656,47.656,0,0,0,.2,5.28,20.786,20.786,0,0,0,2.151-1.76c.587.587,1.369.978,1.956,1.565a44.2,44.2,0,0,0-.2-5.085c0-1.173,1.173-2.151,2.738-2.347,1.565,0,2.934.978,2.934,2.151,0,1.76.2,3.52.2,5.28a20.786,20.786,0,0,0,2.151-1.76c.587.391,1.369.978,1.956,1.369,0-1.76-.2-3.325-.2-5.085,0-1.173,1.173-2.151,2.738-2.347,1.565,0,2.934.978,2.934,2.151,0,1.76.2,3.52.2,5.28.782-.587,1.369-1.173,2.151-1.76.587.391,1.369.978,1.956,1.369,0-1.76-.2-3.325-.2-5.085,0-1.173,1.173-2.151,2.738-2.347,1.565,0,2.934.978,2.934,2.151,0,1.76.2,3.52.2,5.28.782-.587,1.369-1.173,2.151-1.76.587.391,1.369.978,1.956,1.369,0-1.76-.2-3.325-.2-5.085,0-1.173,1.173-2.151,2.738-2.347,1.565,0,2.934.978,2.934,2.151,0,1.76.2,3.52.2,5.28.782-.587,1.369-1.173,2.151-1.76.587.391,1.369.978,1.956,1.369,0-1.76-.2-3.325-.2-5.085,0-1.173,1.173-2.151,2.738-2.347,1.565,0,2.934.978,2.934,2.151,0,1.76.2,3.52.2,5.28.782-.587,1.369-1.173,2.151-1.76.587.391,1.369.978,1.956,1.369-.2-1.76-.391-3.325-.587-5.085,0-1.173,1.173-2.151,2.738-2.347,1.565,0,2.934.978,2.934,2.151,0,1.76.2,3.52.2,5.28.782-.587,1.369-1.173,2.151-1.76.587.391,1.369.978,1.956,1.369,0-1.76-.2-3.325-.2-5.085,0-1.173,1.173-2.151,2.738-2.347,1.565,0,2.934.782,2.934,2.151,0,1.76.2,3.52.2,5.28.782-.587,1.369-1.173,2.151-1.76.587.391,1.369.978,1.956,1.369,0-1.76-.2-3.325-.2-5.085,0-1.173,1.173-2.151,2.738-2.347,1.565,0,2.934.782,2.934,2.151,0,1.76.2,3.52.2,5.28.782-.587,1.369-1.173,2.151-1.76.587.391,1.369.978,1.956,1.369,0-1.76-.2-3.325-.2-5.085a2.616,2.616,0,0,1,2.738-2.347c1.565,0,2.934.782,2.934,2.151.2,1.76.2,3.52.391,5.28a19.478,19.478,0,0,0,2.151-1.956c.587.391,1.369.978,1.956,1.369-.2-1.76-.2-3.325-.391-5.085a2.616,2.616,0,0,1,2.738-2.347c1.565,0,2.934.782,2.934,2.151.2,1.76.2,3.52.391,5.28a19.478,19.478,0,0,0,2.151-1.956c.587.391,1.369.978,1.956,1.369-.2-1.76-.2-3.325-.391-5.085a2.616,2.616,0,0,1,2.738-2.347c1.565,0,2.934.782,2.934,2.151.2,1.76.2,3.52.391,5.28A19.478,19.478,0,0,0,412.72,82.7c.587.391,1.369.978,1.956,1.369-.2-1.76-.2-3.325-.391-5.085a2.616,2.616,0,0,1,2.738-2.347c1.565,0,2.934.782,2.934,1.956.2,1.76.2,3.52.391,5.28a19.478,19.478,0,0,0,2.151-1.956c.587.391,1.369.978,1.956,1.369-.2-1.76-.2-3.325-.391-5.085a2.616,2.616,0,0,1,2.738-2.347c1.565,0,2.934.782,2.934,1.956.2,1.76.2,3.52.391,5.28a19.478,19.478,0,0,0,2.151-1.956c.587.391,1.369.978,1.956,1.369-.2-1.76-.2-3.325-.391-5.085a2.616,2.616,0,0,1,2.738-2.347c1.565,0,2.934.782,2.934,1.956.2,1.76.2,3.52.391,5.28a19.478,19.478,0,0,0,2.151-1.956c.587.391,1.369.978,1.956,1.369-.2-1.76-.2-3.325-.391-5.085a2.561,2.561,0,0,1,2.542-2.347c1.565,0,2.934.782,2.934,1.956.2,1.76.2,3.52.391,5.28a19.48,19.48,0,0,0,2.151-1.956c.587.391,1.369.978,1.956,1.369-.2-1.76-.2-3.325-.391-5.085-.2-1.173,1.173-2.347,2.542-2.347,1.565-.2,2.934.782,2.934,1.956a47.949,47.949,0,0,1,.391,5.28,19.478,19.478,0,0,0,2.151-1.956c.782.391,1.369.978,2.151,1.369-.2-1.76-.2-3.325-.391-5.085-.2-1.173.978-2.347,2.542-2.347,1.565-.2,2.934.782,2.934,1.956a47.949,47.949,0,0,1,.391,5.28h.2c.587-.587,1.369-1.173,1.956-1.76.782.391,1.369.978,2.151,1.369h.391V20.9H7.1L9.056,79.377C9.447,81.919,9.838,81.528,10.425,81.332Z" transform="translate(6.786 20.077)" fill="#fff"/><path d="M256.626.1C259.755.1,262.3,2.253,262.1,4.8c0,0,0,1.369-.2,3.716,0,2.347-1.369,7.432-1.76,20.34s.391,23.86.2,29.532l-1.173,34.03c0,2.542-2.738,4.5-5.867,4.3h-3.52c-3.129,0-5.672-2.151-5.476-4.694l1.173-34.03c.2-5.672,1.76-16.624,2.151-29.532s-.587-17.993-.587-20.535a29.1,29.1,0,0,1,.2-3.716c0-2.542,2.738-4.5,5.867-4.3Z" transform="translate(233.482 0)" fill="#fff"/><path d="M5.476.1C2.347.3,0,2.251,0,4.794c0,0,0,1.369.2,3.716a165.212,165.212,0,0,1,1.76,20.34c.391,12.908-.391,24.056-.2,29.532S2.934,92.215,2.934,92.215c0,2.542,2.738,4.3,5.867,4.3h3.52c3.129,0,5.672-2.151,5.476-4.694,0,0-.978-28.163-1.173-33.834s-1.76-16.624-2.151-29.532.587-17.8.587-20.34a29.1,29.1,0,0,0-.2-3.716C14.864,1.86,12.126.1,9,.1Z" transform="translate(0 0.198)" fill="#fff"/><g transform="translate(43.222 52.32)"><path d="M22.1,27h6.258V55.554c2.347.2,4.694.2,7.236.391V61.03c-4.5-.2-9-.587-13.3-.782C22.1,49.1,22.1,37.952,22.1,27Z" transform="translate(-22.1 -26.413)" fill="#414042"/><path d="M37.367,61.617c-1.956-.2-3.911-.2-5.867-.391V27h5.867Z" transform="translate(-13.116 -26.413)" fill="#414042"/><path d="M43.68,42.355V62.3c-1.76,0-3.52-.2-5.28-.2V27.1h5.28c2.347,7.041,4.694,14.277,7.041,21.513V27.1H56V63.086c-1.76,0-3.52-.2-5.085-.2C48.374,55.654,46.027,49,43.68,42.355Z" transform="translate(-6.521 -26.318)" fill="#414042"/><path d="M63.426,27a4.725,4.725,0,0,1,5.085,5.085V58.879c0,3.129-1.956,5.085-5.085,4.889-4.107-.2-8.019-.391-12.126-.587V27Zm-1.173,6.063c0-.587-.391-.782-.978-.782H57.363V58.292a26.211,26.211,0,0,1,3.911.2.9.9,0,0,0,.978-.782Z" transform="translate(5.808 -26.413)" fill="#414042"/><path d="M80.324,64.746c-1.956,0-4.107-.2-6.063-.2V53.6a34.623,34.623,0,0,1-4.5-.2V64.355c-1.956,0-4.107-.2-6.063-.2V30.716A3.6,3.6,0,0,1,67.416,27h9.192a3.7,3.7,0,0,1,3.911,3.911C80.324,42.255,80.324,53.4,80.324,64.746ZM74.261,48.513V33.258a.716.716,0,0,0-.782-.782H70.545a.841.841,0,0,0-.782.782V48.318A33.151,33.151,0,0,0,74.261,48.513Z" transform="translate(17.659 -26.413)" fill="#414042"/><path d="M75.9,65.037V26.9h6.063V43.719h5.085V26.9H93.11V65.428c-1.956,0-4.107-.2-6.063-.2V49H81.963V65.232C80.007,65.232,78.051,65.232,75.9,65.037Z" transform="translate(29.319 -26.509)" fill="#414042"/><path d="M88.7,27h6.258V60.052c2.347,0,4.889,0,7.236.2v5.867c-4.5,0-9-.2-13.3-.2C88.7,52.816,88.7,39.908,88.7,27Z" transform="translate(41.552 -26.413)" fill="#414042"/><path d="M102.4,27h6.258V60.443h7.236V66.31c-4.5,0-9-.2-13.3-.2C102.4,53.207,102.4,40.1,102.4,27Z" transform="translate(54.646 -26.413)" fill="#414042"/><path d="M117.963,27V60.443c0,.2.2.587.391.587h3.716c.2,0,.391-.2.391-.587V27h6.258V61.812c0,2.934-1.76,4.889-4.5,4.694H116.4c-2.738,0-4.5-1.956-4.5-4.889V27Z" transform="translate(63.725 -26.413)" fill="#414042"/><path d="M130.072,43.037V66.506H124.4V27h5.476l5.281,18.775c1.565-6.258,3.325-12.517,4.889-18.775h5.672V66.506H139.85V43.037c-1.369,4.3-2.542,8.605-3.911,12.712h-2.151C132.614,51.642,131.245,47.34,130.072,43.037Z" transform="translate(75.672 -26.413)" fill="#414042"/><path d="M139.3,66.506V27h13.495a3.648,3.648,0,0,1,3.716,3.911V41.864c0,3.129-1.565,4.3-3.911,4.694,2.347.391,3.911,1.76,3.911,4.5V62.4a3.648,3.648,0,0,1-3.716,3.911C148.1,66.31,143.6,66.506,139.3,66.506Zm10.952-32.661a.924.924,0,0,0-.978-.978h-3.911V43.819h3.911a.924.924,0,0,0,.978-.978Zm0,16.233a.924.924,0,0,0-.978-.978h-3.911V60.443h3.911a.924.924,0,0,0,.978-.978Z" transform="translate(89.913 -26.413)" fill="#414042"/><path d="M151.6,27h13.69v5.672h-7.432V43.624h6.063V49.1h-6.063V60.443c2.542,0,5.085,0,7.432-.2v5.672c-4.5,0-9.192.2-13.69.2Z" transform="translate(101.668 -26.413)" fill="#414042"/><path d="M170.11,52.816h-2.151V65.724c-2.151,0-4.107,0-6.258.2V27h12.517a4.365,4.365,0,0,1,4.5,4.694V47.926c0,2.151-.978,3.911-2.738,4.5.978,4.3,1.956,8.8,2.738,13.1-1.956,0-4.107.2-6.063.2C171.87,61.421,171.088,57.118,170.11,52.816Zm2.542-19.753c0-.2-.2-.587-.391-.587h-4.3V47.34h4.3c.2,0,.391-.2.391-.587Z" transform="translate(111.321 -26.413)" fill="#414042"/><path d="M182.87,65.137c-1.76,0-3.52.2-5.28.2C176.025,52.62,174.265,39.908,172.7,27h5.867l2.347,24.642L183.848,27h5.28c.978,8.214,2.151,16.428,3.129,24.642L194.6,27h5.476c-1.565,12.517-3.129,25.033-4.694,37.746-1.76,0-3.52.2-5.28.2-1.173-8.41-2.347-16.819-3.716-25.229C185.217,48.122,184.043,56.532,182.87,65.137Z" transform="translate(121.834 -26.413)" fill="#414042"/><path d="M202.6,26.9a3.76,3.76,0,0,1,3.911,3.716V60.339a3.76,3.76,0,0,1-3.716,3.911c-3.129.2-6.454.2-9.583.391-2.347,0-3.911-1.369-3.911-3.716V30.611a3.8,3.8,0,0,1,3.911-3.911C196.145,26.9,199.274,26.9,202.6,26.9Zm-2.542,5.867c0-.391-.2-.587-.391-.587h-4.107c-.2,0-.2.391-.2.587V58.97c0,.2,0,.587.2.391a28.884,28.884,0,0,0,4.107-.2c.2,0,.391-.2.391-.587Z" transform="translate(137.699 -26.7)" fill="#414042"/><path d="M210.11,50.956h-2.151V63.081c-2.151,0-4.107.2-6.258.2V26.9h12.517a4.16,4.16,0,0,1,4.5,4.3V46.262a3.913,3.913,0,0,1-2.738,4.107c.978,4.107,1.956,8.019,2.738,12.126-1.956.2-4.107.2-6.063.391C211.87,58.974,211.088,55.063,210.11,50.956Zm2.738-18.188c0-.2-.2-.587-.391-.587h-4.3V46.066a31.688,31.688,0,0,0,4.3-.2.421.421,0,0,0,.391-.391Z" transform="translate(149.551 -26.509)" fill="#414042"/><path d="M214,62.2V27h6.063V41.864c2.151-5.085,4.107-9.974,6.258-14.864h6.258c-2.542,5.476-5.085,10.952-7.432,16.428,2.542,6.063,5.085,11.93,7.823,17.8-2.151.2-4.3.2-6.454.391-1.76-4.3-3.52-8.8-5.476-13.1-.391.391-.587.782-.978.978V61.812C218.107,62.008,215.956,62.008,214,62.2Z" transform="translate(161.306 -26.413)" fill="#414042"/><path d="M225.2,55.849c2.347-.2,4.889-.2,7.236-.391.391,0,.391-.2.391-.391v-8.41a.421.421,0,0,0-.391-.391,21.257,21.257,0,0,0-3.52.2,3.4,3.4,0,0,1-3.716-3.325V30.62a3.554,3.554,0,0,1,3.716-3.52h9.779v4.694h-7.041c-.2,0-.391.2-.391.587v8.214a.421.421,0,0,0,.391.391h3.52c2.151,0,3.911,1.369,3.911,3.325V56.827c0,1.956-1.565,3.52-3.911,3.716l-9.974.587Q225.2,58.2,225.2,55.849Z" transform="translate(172.01 -26.318)" fill="#414042"/></g><g transform="translate(61.215 14.77)"><path d="M39.905,7.5V9.847H37.167v8.41H34.038V9.847H31.3V7.5Z" transform="translate(-31.3 -7.5)" fill="#bcbec0"/><path d="M47.892,18.257H44.763v-4.3H41.829v4.3H38.7V7.5h3.129v4.107h2.934V7.5h3.129Z" transform="translate(-24.228 -7.5)" fill="#bcbec0"/><path d="M46.9,7.5h7.823V9.847H50.029V11.8h4.107V14.15H50.029v1.956h4.889v2.151H47.1V7.5Z" transform="translate(-16.39 -7.5)" fill="#bcbec0"/><path d="M67.87,7.5,64.154,18.257H61.22L57.7,7.5h3.325l1.76,6.845L64.741,7.5Z" transform="translate(-6.069 -7.5)" fill="#bcbec0"/><path d="M65.8,7.5h7.823V9.847H68.929V11.8h4.107V14.15H68.929v1.956h4.694v2.151H65.8Z" transform="translate(1.673 -7.5)" fill="#bcbec0"/><path d="M80.632,7.5A1.308,1.308,0,0,1,82,8.673v4.889a1.308,1.308,0,0,1-1.369,1.173h0L82.2,18.061H79.263L77.7,14.736H76.329v3.52H73.2V7.5Zm-1.565,2.542c0-.2-.2-.2,0,0l-2.738-.2V12.78h2.542a.192.192,0,0,0,.2-.2Z" transform="translate(8.745 -7.5)" fill="#bcbec0"/><path d="M83.834,18.257V15.127H82.269A1.308,1.308,0,0,1,80.9,13.954V7.5h3.129v4.889l.2.2h2.542c.2,0,.2,0,.2-.2V7.5h3.129v6.258c0,.782-.587,1.173-1.369,1.173h-1.76v3.325Z" transform="translate(16.105 -7.5)" fill="#bcbec0"/><path d="M97.1,11.607h5.476v2.347H101.6v3.129c0,.782-.587,1.173-1.369,1.173H94.169A1.308,1.308,0,0,1,92.8,17.083V8.673A1.308,1.308,0,0,1,94.169,7.5H101.6V9.847H96.125a.192.192,0,0,0-.2.2v5.672a.192.192,0,0,0,.2.2h2.542c.2,0,.2,0,.2-.2v-1.76H97.1Z" transform="translate(27.478 -7.5)" fill="#bcbec0"/><path d="M108.627,7.5A1.308,1.308,0,0,1,110,8.673v8.214c0,.782-.587,1.173-1.369,1.173h-6.258A1.308,1.308,0,0,1,101,16.888V8.869c0-.782.587-1.173,1.369-1.173h6.258Zm-1.76,2.542a.192.192,0,0,0-.2-.2h-2.347a.192.192,0,0,0-.2.2v5.672a.192.192,0,0,0,.2.2h2.347c.2,0,.2,0,.2-.2Z" transform="translate(35.315 -7.5)" fill="#bcbec0"/><path d="M116.627,7.5A1.308,1.308,0,0,1,118,8.673v8.214c0,.782-.587,1.173-1.369,1.173h-6.258A1.308,1.308,0,0,1,109,16.888V8.869c0-.782.587-1.173,1.369-1.173h6.258Zm-1.565,2.542a.192.192,0,0,0-.2-.2H112.52a.192.192,0,0,0-.2.2v5.672a.192.192,0,0,0,.2.2h2.347c.2,0,.2,0,.2-.2Z" transform="translate(42.961 -7.5)" fill="#bcbec0"/><path d="M123.554,7.5A2.22,2.22,0,0,1,125.9,9.651V15.91a2.348,2.348,0,0,1-2.347,2.151H117.1V7.5Zm-.587,3.129a.841.841,0,0,0-.782-.782h-1.76V15.91h1.76a.716.716,0,0,0,.782-.782Z" transform="translate(50.702 -7.5)" fill="#bcbec0"/><path d="M142.386,7.5l-2.347,10.757H137.3l-1.76-5.867-1.956,5.867h-2.738L128.5,7.5h2.934l.978,6.65,1.565-6.65h2.542l1.565,6.454L139.257,7.5h3.129Z" transform="translate(61.598 -7.5)" fill="#bcbec0"/><path d="M146.027,7.5A1.308,1.308,0,0,1,147.4,8.673v8.214c0,.782-.587,1.173-1.369,1.173h-6.258a1.308,1.308,0,0,1-1.369-1.173V8.869c0-.782.587-1.173,1.369-1.173h6.258Zm-1.76,2.542a.192.192,0,0,0-.2-.2h-2.347a.192.192,0,0,0-.2.2v5.672a.192.192,0,0,0,.2.2h2.347c.2,0,.2,0,.2-.2Z" transform="translate(71.06 -7.5)" fill="#bcbec0"/><path d="M154.027,7.5A1.308,1.308,0,0,1,155.4,8.673v8.214c0,.782-.587,1.173-1.369,1.173h-6.258a1.308,1.308,0,0,1-1.369-1.173V8.869c0-.782.587-1.173,1.369-1.173h6.258Zm-1.565,2.542a.192.192,0,0,0-.2-.2H149.92a.192.192,0,0,0-.2.2v5.672a.192.192,0,0,0,.2.2h2.347c.2,0,.2,0,.2-.2Z" transform="translate(78.705 -7.5)" fill="#bcbec0"/><path d="M161.054,7.5A2.22,2.22,0,0,1,163.4,9.651V15.91a2.348,2.348,0,0,1-2.347,2.151H154.6V7.5Zm-.782,3.129a.841.841,0,0,0-.782-.782h-1.76V15.91h1.76a.716.716,0,0,0,.782-.782Z" transform="translate(86.542 -7.5)" fill="#bcbec0"/><path d="M175.4,14.345v2.738c0,.782-.587,1.173-1.369,1.173h-6.063a1.308,1.308,0,0,1-1.369-1.173V8.673A1.308,1.308,0,0,1,167.969,7.5h6.063A1.308,1.308,0,0,1,175.4,8.673v2.738h-3.129V10.042a.192.192,0,0,0-.2-.2h-2.347c-.2,0-.2,0-.2.2v5.672a.192.192,0,0,0,.2.2h2.347a.192.192,0,0,0,.2-.2V14.345Z" transform="translate(98.011 -7.5)" fill="#bcbec0"/><path d="M182.027,7.5A1.308,1.308,0,0,1,183.4,8.673v8.214c0,.782-.587,1.173-1.369,1.173h-6.258a1.308,1.308,0,0,1-1.369-1.173V8.869c0-.782.587-1.173,1.369-1.173h6.258Zm-1.76,2.542a.192.192,0,0,0-.2-.2h-2.542a.192.192,0,0,0-.2.2v5.672a.192.192,0,0,0,.2.2h2.347c.2,0,.2,0,.2-.2V10.042Z" transform="translate(105.466 -7.5)" fill="#bcbec0"/><path d="M185.334,12.194v6.063H182.4V7.5h3.129l2.347,4.889L190.027,7.5h3.325V18.257h-2.934V12l-1.956,4.3h-.978Z" transform="translate(113.112 -7.5)" fill="#bcbec0"/><path d="M199.032,7.5A1.308,1.308,0,0,1,200.4,8.673v5.672a1.308,1.308,0,0,1-1.369,1.173h-4.3v2.738H191.6V7.5Zm-1.76,5.672h0l.2-3.129a.192.192,0,0,0-.2-.2h-2.347v3.325h2.347Z" transform="translate(121.905 -7.5)" fill="#bcbec0"/><path d="M208.2,18.161h-3.129V15.423h-2.542v2.738H199.4V8.773c0-.782.587-1.173,1.369-1.173h6.063A1.308,1.308,0,0,1,208.2,8.773Zm-3.129-4.889V9.947a.421.421,0,0,0-.391-.391h-1.956a.421.421,0,0,0-.391.391v3.129h2.738Z" transform="translate(129.36 -7.404)" fill="#bcbec0"/><path d="M210.334,12.389v5.867H207.4V7.5h2.934l3.52,5.867V7.5h2.934V18.257h-2.934Z" transform="translate(137.005 -7.5)" fill="#bcbec0"/><path d="M218.434,18.257V15.127h-1.565a1.308,1.308,0,0,1-1.369-1.173V7.5h3.129v4.889l.2.2h2.542c.2,0,.2,0,.2-.2V7.5h3.129v6.258c0,.782-.587,1.173-1.369,1.173h-1.565v3.325Z" transform="translate(144.747 -7.5)" fill="#bcbec0"/></g><g transform="translate(28.945 21.224)"><line x1="20.34" fill="none" stroke="#bcbec0" stroke-miterlimit="10" stroke-width="0.857"/><line x1="20.34" transform="translate(417.746)" fill="none" stroke="#bcbec0" stroke-miterlimit="10" stroke-width="0.857"/></g></g></svg>
