<?xml version="1.0" encoding="utf-8"?>
<svg xmlns="http://www.w3.org/2000/svg" xmlns:xlink="http://www.w3.org/1999/xlink" width="263.142" height="212.313" viewBox="0 0 263.142 212.313"><defs><clipPath id="a"><path d="M0,0H263.142V98.409H0Z" fill="#fff"/></clipPath></defs><g transform="translate(-0.069 -0.622)"><path d="M48.109,159.679a66.356,66.356,0,0,1-19.5-2.764A46.8,46.8,0,0,1,13.4,149.171a35.08,35.08,0,0,1-9.879-11.9A33.687,33.687,0,0,1,0,122.026a17.169,17.169,0,0,1,2.812-9.46,23.62,23.62,0,0,1,7.315-7.011A40.918,40.918,0,0,1,31.537,99.7a93.252,93.252,0,0,1,23.029,2.772,146,146,0,0,1,17.4,5.823,115.339,115.339,0,0,0,14.791,4.946c.148-.565.266-1.044.368-1.5.9-4.011,1.778-9.889,2.7-17.971a27.385,27.385,0,0,1-10.934,1.938,13.432,13.432,0,0,1-11.5-6.415,23.254,23.254,0,0,1-3.085-7.154,36.248,36.248,0,0,1-1.069-9.016c0-11.816.883-28.283,2.362-44.049C67.049,13.628,68.722,2.837,69.967.91c.385-.6,1.285-.91,2.6-.91a16.712,16.712,0,0,1,6.511,1.638c2.372,1.109,3.954,2.495,4.342,3.8.449,1.517-1.508,22.265-3.234,40.571-1.26,13.359-2.348,24.895-2.348,27.226a30.215,30.215,0,0,0,.893,8.621,7.271,7.271,0,0,0,1.827,3.183A4.764,4.764,0,0,0,83.941,86.3c2.377,0,4.734-1.138,7.006-3.381.842-8.8,1.624-18.424,2.314-26.911.852-10.483,1.588-19.535,2.29-25.624l.062-.54c2.059-17.85,3-26,5.424-28.849a2.533,2.533,0,0,1,2-.658c2.808,0,7.492,1.974,9.282,3.912A2.019,2.019,0,0,1,113,5.683c-.019.236-.055.983-.115,2.221v.018c-.293,6.046-1.184,24.446-3.158,45.221-2.5,26.271-5.766,46.709-9.719,60.744-.034.118-.068.234-.1.348l0,.007c-.035.119-.071.237-.105.358a91.383,91.383,0,0,0,16.514-2.093,138.769,138.769,0,0,0,15.485-4.271,124.561,124.561,0,0,0,11.833-4.631c2.953-1.36,5.031-2.546,5.56-3.174,1.275-1.514,2.387-2.315,3.216-2.315a1.138,1.138,0,0,1,.886.413c.644.735.842,2.445.544,4.69a24.407,24.407,0,0,1-1.907,6.14,35.4,35.4,0,0,1-7.517,10.814,46.066,46.066,0,0,1-16.648,10.3c-8.2,3.043-18.06,4.586-29.3,4.586a38.845,38.845,0,0,1-6.34-.531A53.993,53.993,0,0,1,83.7,146.653a38.173,38.173,0,0,1-10.065,7.736C66.829,158,58.716,159.679,48.109,159.679ZM35.261,109.365A38.874,38.874,0,0,0,21.3,112.031a16.757,16.757,0,0,0-6.027,3.992,9.213,9.213,0,0,0-2.492,6.351,9.626,9.626,0,0,0,3.2,6.864,25.605,25.605,0,0,0,8.191,5.121,62.28,62.28,0,0,0,22.882,4.308c12.985,0,23.118-3.145,30.118-9.347a150.008,150.008,0,0,1-13.084-7.935C54.637,115.2,45.712,109.365,35.261,109.365Z" transform="translate(70.338 3.833)" fill="#fff"/><g transform="translate(0.069 0.622)"><path d="M0,0H263.142V98.409H0Z" fill="none"/><g clip-path="url(#a)"><path d="M60.873,59.919A30.647,30.647,0,0,1,50.5,58.162c-2.885-1.069-4.826-2.454-5.326-3.8a5.891,5.891,0,0,1,.608-3.72c.648-1.435,2.755-2.229,3.963-2.229.062,0,.123,0,.181.006a2.9,2.9,0,0,1,1.97,1.172c.957,1,2.148,2.24,5.844,2.24a8.3,8.3,0,0,0,6.563-3,10.141,10.141,0,0,0,1.843-3.386,13.878,13.878,0,0,0,.653-4.325,12.773,12.773,0,0,0-1.127-5.135,18.168,18.168,0,0,0-2.479-4.031,21.63,21.63,0,0,0-3.606-3.576l0,.007a76.487,76.487,0,0,1-10.362,15.4A52.307,52.307,0,0,1,36.964,54.384,31.45,31.45,0,0,1,20.616,59.2a21.323,21.323,0,0,1-8.034-1.559A21.076,21.076,0,0,1,6.03,53.456a19.563,19.563,0,0,1-4.413-6.071A17.124,17.124,0,0,1,0,40.166,83.8,83.8,0,0,1,1.054,26.229,41.964,41.964,0,0,1,5.016,13.77a22.768,22.768,0,0,1,8.068-8.958A24.974,24.974,0,0,1,26.458,1.377c4.635,0,8.563,1.388,11.36,4.015a12.633,12.633,0,0,1,3.987,9.314,21.483,21.483,0,0,1-6.642,16.233c-4.675,4.535-11.918,8.08-22.145,10.838a7.692,7.692,0,0,0,2,3.529,10.282,10.282,0,0,0,3.662,2.426,17.373,17.373,0,0,0,6.471,1.1c3.541,0,7.269-1.376,11.081-4.091a48.542,48.542,0,0,0,9.245-9,86.39,86.39,0,0,0,8.684-13.092l-.007,0a27.876,27.876,0,0,1-3.415-3.39c-1.561-1.849-3.422-4.626-3.422-7.352a14.78,14.78,0,0,1,.84-5.148,9.842,9.842,0,0,1,2.409-3.728A10.233,10.233,0,0,1,54.38.765,15.674,15.674,0,0,1,59.435,0a9.8,9.8,0,0,1,5.987,2.2,8.261,8.261,0,0,1,3.115,6.6c0,4.324-3.035,10.277-3.066,10.337l.005,0a48.708,48.708,0,0,1,7.772,7A35.729,35.729,0,0,1,78.6,33.8a21.1,21.1,0,0,1,2.43,9.484c0,5.987-2.263,10.463-6.725,13.3C71.916,58.108,67.649,59.919,60.873,59.919ZM25.539,10.1a6.812,6.812,0,0,0-3.722,1.328,17.436,17.436,0,0,0-5.63,6.481,29.858,29.858,0,0,0-2.7,7.771,41.576,41.576,0,0,0-.888,9.261,34.071,34.071,0,0,0,12.036-7.037,16.82,16.82,0,0,0,4.957-8.629c.689-3.25.312-6.066-1.032-7.726A3.771,3.771,0,0,0,25.539,10.1Zm32.7-4.838c-2.784,0-4.081,1.408-4.081,4.431a5.728,5.728,0,0,0,2.432,4.254,11.758,11.758,0,0,0,2.431,1.493,8.119,8.119,0,0,0,2.339-5.352C61.363,7.693,60.291,5.265,58.242,5.265Z" transform="translate(182.115 37.411)" fill="#fff"/><path d="M102.345,98.409a22.383,22.383,0,0,1-9.822-2.063,17.026,17.026,0,0,1-6.872-6.014,18.405,18.405,0,0,1-5.23,4.762,17.98,17.98,0,0,1-9.415,2.518,22.258,22.258,0,0,1-7.4-.987,9.194,9.194,0,0,1-4.65-3.441,16.227,16.227,0,0,1-2.412-6.613,62.413,62.413,0,0,1-.69-10.5c0-6.535,1.314-17.877,2.585-28.845C59.509,37.975,60.521,29.243,60.521,25a20.326,20.326,0,0,0-1.815-8.385,9.654,9.654,0,0,0-2.829-3.552A7.549,7.549,0,0,0,51.27,11.6a5.957,5.957,0,0,0-4.126,1.748,16.97,16.97,0,0,0-3.114,4.194c.005.087.013.175.021.26.013.145.026.294.026.442,0,3.671-.58,9.173-1.384,16.788-1.188,11.26-2.815,26.68-3.608,46.368-.057,1.4-.049,2.689-.041,3.934.024,3.854.043,6.9-2.047,9.147-1.043,1.124-5.471,1.636-9.145,1.636-3.308,0-7.394-.428-8.024-1.636-.753-1.444-.54-3.159-.186-6,.2-1.628.455-3.655.586-6.192.133-2.557.889-10.955,1.765-20.68,1.517-16.841,3.406-37.8,3.406-43.07,0-3.352-.62-5.983-1.843-7.82a7.1,7.1,0,0,0-6.318-3.1,8.936,8.936,0,0,0-6.564,2.47c-1.782,1.814-2.685,4.5-2.685,8a20.263,20.263,0,0,0,.528,4.633c.471,1.81,1.184,2.728,2.119,2.728,1.137,0,2.726-1.528,4.128-2.876,1.107-1.065,2.063-1.984,2.6-1.984a.369.369,0,0,1,.161.034c1.048.5,1.454,3.777,1.458,3.81a16.7,16.7,0,0,1-2.783,5.059c-1.269,1.613-3.266,3.535-5.568,3.535-3.669,0-6.165-.954-7.856-3C.91,27.753,0,24.04,0,18.667a18.644,18.644,0,0,1,1.664-7.9A17.011,17.011,0,0,1,6.155,4.9,22.3,22.3,0,0,1,20.619,0,27.937,27.937,0,0,1,32.156,2.385a22.514,22.514,0,0,1,8.119,6.054C45.838,3.21,50.9.559,55.306.559A27.64,27.64,0,0,1,66.976,2.8a17.333,17.333,0,0,1,6.994,5.827,22.663,22.663,0,0,1,3.4,8.067,41.149,41.149,0,0,1,.893,8.961c0,14.9-2.143,26.809-3.865,36.38-.635,3.53-1.235,6.864-1.665,9.973-.046.336-.1.69-.15,1.059v.007a52.052,52.052,0,0,0-.668,6.886c-.014,2.716.453,4.583,1.428,5.708A3.709,3.709,0,0,0,76.288,86.9a3.66,3.66,0,0,0,2.706-1.335,10.148,10.148,0,0,0,1.776-2.936,22.134,22.134,0,0,0,1.27-4.271l.019.031c-.031-.538-.072-1.275-.072-2.025a71.127,71.127,0,0,1,1.193-13.5A40.19,40.19,0,0,1,87.669,50.3a24.912,24.912,0,0,1,9.147-9.271,30.17,30.17,0,0,1,15.169-3.615c4.838,0,9.742,2.626,13.116,7.024a16.642,16.642,0,0,1,7.956-2.443l-.217,6.9h-.005a7.962,7.962,0,0,0-4.571,1.589,20.8,20.8,0,0,1,1.038,6.463A86.606,86.606,0,0,1,127.2,77.476a33.586,33.586,0,0,1-5.755,12.693,20.95,20.95,0,0,1-3.984,3.9,20.244,20.244,0,0,1-4.581,2.542A28.128,28.128,0,0,1,102.345,98.409Zm-1.214-46.263a39.959,39.959,0,0,0-3.862,10.421A48.893,48.893,0,0,0,96,70.947a46.922,46.922,0,0,0-.3,6.99,29.218,29.218,0,0,0,.729,5.876,11.57,11.57,0,0,0,2.3,4.921,5.856,5.856,0,0,0,4.6,2.059,8.112,8.112,0,0,0,5.67-2.451,19.168,19.168,0,0,0,4.222-6.623c2.285-5.518,3.552-13.109,3.566-21.374a14.616,14.616,0,0,1-7.529,2.079,7.456,7.456,0,0,1-5.617-2.911C101.8,57.34,100.766,54.311,101.131,52.146Zm8.943-6.412a7.951,7.951,0,0,0-3.063.619c-1.048,4.291-.273,6.118.283,6.825a2.622,2.622,0,0,0,2.187.957c1.553,0,3.625-1.285,6.258-3.214a8.7,8.7,0,0,0-2.111-3.811A4.955,4.955,0,0,0,110.074,45.734Z" transform="translate(-0.066 0)" fill="#fff"/></g></g><path d="M14.018,16.158a5.9,5.9,0,0,1-4.371-2.193L6.9,10.687l-5.092,4.6L0,13.126,14.55,0,18.6,4.829a8.453,8.453,0,0,1,2.287,4.4c.181,1.7-.606,3.32-2.407,4.944A6.7,6.7,0,0,1,14.018,16.158Zm.573-12.407L8.666,9.095l2.422,2.888A3.515,3.515,0,0,0,13.751,13.5,4.394,4.394,0,0,0,16.6,12.119a3.731,3.731,0,0,0,1.565-2.75,5.566,5.566,0,0,0-1.662-3.332Z" transform="translate(30.418 153.056)" fill="#fff"/><path d="M11.958,23.762h0L9.538,22.227l.542-8.642L6.592,11.373,2.373,17.68,0,16.175,10.82,0l5.386,3.417c2.154,1.367,3.354,2.756,3.669,4.247a5.364,5.364,0,0,1-1.1,4.133,6.039,6.039,0,0,1-5.11,2.692,7.25,7.25,0,0,1-.971-.067l-.739,9.338ZM12,3.285,8.014,9.246,11.6,11.519a3.585,3.585,0,0,0,1.891.565,3.486,3.486,0,0,0,2.942-1.778,3.338,3.338,0,0,0,.632-2.578,4.191,4.191,0,0,0-2.07-2.547L12,3.285h0Z" transform="translate(54.18 172.065)" fill="#fff"/><path d="M0,18.1,6.945,0,9.5.905l-6.945,18.1L0,18.1" transform="translate(84.595 186.322)" fill="#fff"/><path d="M12.544,20.636l-8.1-16.31L2.573,19.384,0,19.06,2.369,0,5.16.35l7.574,15.441L14.507,1.524l2.6.326-2.37,19.06-2.195-.274" transform="translate(107.406 192.025)" fill="#fff"/><path d="M8.6,3.174l2.179,17.393-2.636.343L5.964,3.52.3,4.258,0,1.822,13.951,0l.306,2.435L8.6,3.174" transform="translate(139.722 192.025)" fill="#fff"/><path d="M6.158,19.009,0,.86,2.4,0,8.554,18.15l-2.4.86" transform="translate(168.236 186.322)" fill="#fff"/><path d="M21.826,17.7,4.531,10.26l8.5,13.014-2.27,1.438L0,8.238l2.462-1.56,16.3,7.107L10.706,1.454,13,0,23.762,16.474,21.826,17.7" transform="translate(186.295 172.065)" fill="#fff"/><path d="M3.916,18.18c-4.71-4.045-5.123-9.87-1.5-14.348A16.3,16.3,0,0,1,6.968,0L8.577,1.716A17.929,17.929,0,0,0,4.3,5.341C1.266,9.093,2.483,13.078,5.786,15.916c3.409,2.928,7.417,3.245,10.653-.75a9.88,9.88,0,0,0,1.674-2.915L14.405,9.067,12.449,11.48,10.617,9.906l3.644-4.5,6.649,5.711a17.248,17.248,0,0,1-3.119,6.215c-3.448,4.258-9.123,4.93-13.876.847" transform="translate(213.858 150.204)" fill="#fff"/></g></svg>
