<?xml version="1.0" encoding="utf-8"?>
<svg xmlns="http://www.w3.org/2000/svg" xmlns:xlink="http://www.w3.org/1999/xlink" viewBox="0 0 121.83 107.14"><defs><style>.cls-1{fill:url(#linear-gradient);}.cls-2{fill:url(#linear-gradient-2);}.cls-3{fill:url(#linear-gradient-3);}.cls-4{fill:url(#linear-gradient-4);}.cls-5{fill:url(#linear-gradient-5);}.cls-6{fill:url(#linear-gradient-6);}.cls-7{fill:#fff;}</style><linearGradient id="linear-gradient" x1="60.92" y1="73.21" x2="60.92" y2="37.62" gradientUnits="userSpaceOnUse"><stop offset="0" stop-color="#2d4d76"/><stop offset="1" stop-color="#002856"/></linearGradient><linearGradient id="linear-gradient-2" x1="91.37" y1="76.97" x2="91.37" y2="63.16" gradientUnits="userSpaceOnUse"><stop offset="0" stop-color="#34aee4"/><stop offset="1" stop-color="#00a0df"/></linearGradient><linearGradient id="linear-gradient-3" x1="91.37" y1="88.61" x2="91.37" y2="72.93" gradientUnits="userSpaceOnUse"><stop offset="0" stop-color="#0088d1"/><stop offset="1" stop-color="#0075c9"/></linearGradient><linearGradient id="linear-gradient-4" x1="30.46" y1="76.97" x2="30.46" y2="63.16" xlink:href="#linear-gradient-2"/><linearGradient id="linear-gradient-5" x1="30.46" y1="88.61" x2="30.46" y2="72.93" xlink:href="#linear-gradient-3"/><linearGradient id="linear-gradient-6" x1="60.9" y1="106.66" x2="60.9" y2="78.06" gradientUnits="userSpaceOnUse"><stop offset="0" stop-color="#006cc3"/><stop offset="1" stop-color="#0055b8"/></linearGradient></defs><title>SUPERU-Logo</title><g id="Layer_2" data-name="Layer 2"><g id="Layer_1-2" data-name="Layer 1"><path class="cls-1" d="M121.82,54.26V0H0V54.3L60.92,73.87Z"/><polygon class="cls-2" points="121.82 58.74 60.92 78.36 121.82 70.52 121.82 58.74"/><polygon class="cls-3" points="60.92 78.36 92.1 88.39 121.82 70.52 60.92 78.36"/><polygon class="cls-4" points="0 58.78 0 70.51 60.92 78.36 0 58.78"/><polygon class="cls-5" points="0 70.51 29.71 88.38 60.92 78.36 0 70.51"/><polygon class="cls-6" points="29.71 88.38 60.92 78.36 92.1 88.39 60.92 107.14 29.71 88.38"/><path class="cls-7" d="M33.29,35.51v-3a.63.63,0,0,0-.15-.48.75.75,0,0,0-.53-.15H30.39c-2,0-3-1-3-2.92V25.18q0-2.87,3.17-2.86h3.08q3.16,0,3.17,2.86v2.17h-3.6V25.7c0-.43-.23-.65-.68-.65H31.7c-.45,0-.68.22-.68.65v2.92a.67.67,0,0,0,.15.49.8.8,0,0,0,.53.14h2.17a3.18,3.18,0,0,1,2.32.72,2.88,2.88,0,0,1,.7,2.12V36q0,2.89-3.17,2.89h-3q-3.2,0-3.2-2.89V33.86h3.6v1.65c0,.43.23.65.68.65h.86C33.06,36.16,33.29,35.94,33.29,35.51Z"/><path class="cls-7" d="M45,22.32h3.61V36q0,2.89-3.2,2.89H42q-3.16,0-3.17-2.89V22.32h3.6V35.51a.58.58,0,0,0,.65.65h1.21c.46,0,.68-.22.68-.65Z"/><path class="cls-7" d="M50.82,22.32h6.6q3.16,0,3.17,2.86v5q0,2.9-3.17,2.9h-3v5.78H50.82ZM57,29.72v-4a.58.58,0,0,0-.66-.65H54.39v5.32h1.94A.58.58,0,0,0,57,29.72Z"/><path class="cls-7" d="M65.9,36.16H71v2.73H62.3V22.32h8.54v2.73H65.9v4h4.21v2.74H65.9Z"/><path class="cls-7" d="M76.18,32.69v6.2H72.6V22.32h6.6q3.17,0,3.17,2.86v4.64a2.51,2.51,0,0,1-2,2.77l2.82,6.3H79.33l-2.52-6.2Zm0-7.64v5h1.94a.7.7,0,0,0,.5-.15.63.63,0,0,0,.15-.48V25.7a.58.58,0,0,0-.65-.65Z"/><path class="cls-7" d="M90.53,22.32h3.6V36q0,2.89-3.19,2.89H87.56q-3.16,0-3.17-2.89V22.32H88V35.51a.58.58,0,0,0,.65.65h1.21c.46,0,.68-.22.68-.65Z"/><path class="cls-7" d="M98.68,23.81a1.46,1.46,0,1,1-1.46-1.45A1.45,1.45,0,0,1,98.68,23.81Zm-2.7,0a1.24,1.24,0,1,0,1.24-1.24A1.23,1.23,0,0,0,96,23.82Zm1,.84h-.27V23h.66a.42.42,0,0,1,.47.42.41.41,0,0,1-.36.39h0c.21,0,.28.09.29.43a2.82,2.82,0,0,0,.07.44h-.27a2,2,0,0,1-.07-.56.21.21,0,0,0-.25-.19H97Zm0-1h.35a.24.24,0,0,0,.24-.27.23.23,0,0,0-.24-.25H97Z"/></g></g></svg>
